<svg width="920" height="200" viewBox="0 0 920 200" fill="none" xmlns="http://www.w3.org/2000/svg">
<path d="M0 10C0 4.47716 4.47715 0 10 0H910C915.523 0 920 4.47715 920 10V190C920 195.523 915.523 200 910 200H10C4.47715 200 0 195.523 0 190V10Z" fill="url(#paint0_linear)"/>
<path d="M123.136 70.1051C124.37 73.5191 126.204 77.2229 128.784 79.3813C134.505 84.1687 135.732 85.7414 137.844 95.3162C139.956 104.891 149.764 96.8204 149.764 96.8204C149.764 96.8204 152.693 94.8368 157.603 97.6107C158.962 98.2672 160.477 98.5279 161.976 98.3632C166.063 98.1577 173.747 96.4534 180.008 87.4511C188.999 74.5254 194.244 70.6952 192.746 59.2052C191.248 47.7153 189.544 41.7653 176.602 39.7816C167.78 38.4302 160.51 33.7385 156.772 30.8909C156.518 30.6968 156.26 30.5133 155.995 30.3385C154.459 29.3137 152.736 28.6052 150.925 28.254C149.114 27.9028 147.251 27.9159 145.445 28.2926C141.986 29.0668 138.776 30.6998 136.108 33.0422C134.868 34.095 133.738 35.2719 132.735 36.5546C131.022 38.7441 129.68 41.2017 128.762 43.8288C127.473 47.6214 125.933 51.3237 124.155 54.9113C123.184 56.7584 122.524 58.754 122.201 60.8174C121.746 63.9433 122.067 67.1338 123.136 70.1051Z" fill="#828A9E"/>
<path d="M144.179 92.9006C144.463 92.9004 144.736 92.7889 144.939 92.5898C145.143 92.3907 145.261 92.1197 145.268 91.8345C145.463 85.2716 141.77 82.0701 141.611 81.9375C141.39 81.7621 141.109 81.68 140.828 81.7084C140.547 81.7368 140.288 81.8735 140.106 82.0897C139.923 82.3059 139.831 82.5847 139.85 82.8675C139.868 83.1503 139.995 83.415 140.203 83.6059C140.338 83.7226 143.252 86.3201 143.089 91.7669C143.085 91.9105 143.109 92.0536 143.16 92.188C143.21 92.3223 143.287 92.4453 143.385 92.5499C143.483 92.6545 143.601 92.7387 143.731 92.7977C143.862 92.8566 144.003 92.8892 144.146 92.8935L144.179 92.9006Z" fill="#62667C"/>
<path d="M129.282 66.2739C129.325 66.2738 129.368 66.2711 129.411 66.266C129.698 66.2321 129.96 66.0853 130.139 65.8577C130.318 65.6302 130.4 65.3405 130.366 65.0525C129.706 59.4115 131.527 56.6157 131.545 56.5885C131.709 56.3497 131.772 56.0553 131.721 55.7698C131.669 55.4843 131.506 55.2313 131.268 55.0663C131.03 54.9013 130.737 54.8379 130.453 54.89C130.168 54.9421 129.916 55.1055 129.752 55.3442C129.657 55.4812 127.435 58.7688 128.201 65.308C128.233 65.5738 128.36 65.8189 128.559 65.9969C128.759 66.1749 129.016 66.2734 129.282 66.2739Z" fill="#62667C"/>
<path d="M172.424 66.2739C172.588 66.274 172.75 66.2368 172.898 66.1651C173.046 66.0934 173.176 65.9891 173.278 65.8599C173.38 65.7307 173.452 65.58 173.488 65.4191C173.524 65.2581 173.523 65.0911 173.486 64.9304C172.335 59.9762 167.759 58.3947 165.5 58.2507C165.212 58.2318 164.928 58.3288 164.711 58.5202C164.493 58.7117 164.361 58.9819 164.342 59.2715C164.323 59.5611 164.42 59.8463 164.61 60.0644C164.801 60.2825 165.07 60.4157 165.359 60.4345C165.57 60.4495 170.297 60.8429 171.363 65.4274C171.419 65.668 171.554 65.8825 171.746 66.0362C171.939 66.1898 172.178 66.2736 172.424 66.2739Z" fill="#62667C"/>
<path d="M183.959 69.3736C184.225 69.374 184.483 69.2762 184.682 69.0988C188.243 65.9314 187.701 60.6743 187.676 60.4521C187.644 60.1637 187.5 59.8998 187.274 59.7185C187.048 59.5372 186.76 59.4533 186.473 59.4853C186.185 59.5173 185.923 59.6626 185.742 59.8892C185.561 60.1158 185.478 60.4052 185.51 60.6936C185.514 60.7366 185.941 65.0551 183.236 67.4602C183.07 67.6075 182.953 67.8019 182.9 68.0176C182.847 68.2332 182.861 68.46 182.939 68.6677C183.018 68.8754 183.158 69.0542 183.34 69.1803C183.522 69.3064 183.738 69.3738 183.959 69.3736Z" fill="#62667C"/>
<path d="M159.8 71.3801C161.806 71.3801 163.433 70.0941 163.433 68.5078C163.433 66.9215 161.806 65.6355 159.8 65.6355C157.793 65.6355 156.167 66.9215 156.167 68.5078C156.167 70.0941 157.793 71.3801 159.8 71.3801Z" fill="#62667C"/>
<path d="M157.556 85.1713C159.381 83.508 160.223 81.4558 159.438 80.5877C158.653 79.7196 156.537 80.3643 154.713 82.0276C152.889 83.691 152.046 85.7431 152.831 86.6113C153.617 87.4794 155.732 86.8347 157.556 85.1713Z" fill="#62667C"/>
<path d="M175.561 82.8512C176.503 80.931 176.035 78.7645 174.514 78.0121C172.993 77.2597 170.996 78.2064 170.054 80.1265C169.112 82.0467 169.58 84.2132 171.101 84.9656C172.622 85.7179 174.619 84.7713 175.561 82.8512Z" fill="#62667C"/>
<path d="M142.694 76.9003C144.361 75.2268 143.951 72.1021 141.779 69.9211C139.607 67.7401 136.494 67.3288 134.828 69.0023C133.161 70.6758 133.57 73.8005 135.743 75.9815C137.915 78.1625 141.027 78.5739 142.694 76.9003Z" fill="#62667C"/>
<path d="M148.142 56.2182C151.993 55.3959 154.633 52.452 154.038 49.6427C153.442 46.8335 149.838 45.2228 145.987 46.0451C142.136 46.8674 139.497 49.8113 140.092 52.6206C140.687 55.4298 144.291 57.0405 148.142 56.2182Z" fill="#62667C"/>
<path d="M132.735 36.552C135.141 38.3819 138.857 39.556 143.029 39.556C150.288 39.556 156.168 36.0023 156.168 31.6223C156.167 31.1887 156.108 30.7572 155.993 30.3394C154.457 29.3146 152.733 28.6061 150.922 28.2549C149.111 27.9037 147.249 27.9168 145.443 28.2934C141.985 29.0678 138.776 30.7005 136.108 33.0422C134.868 34.0942 133.738 35.2701 132.735 36.552Z" fill="#62667C"/>
<path d="M171.801 46.14C172.21 46.14 172.466 46.1206 172.514 46.1171C172.802 46.0938 173.069 45.9566 173.256 45.7356C173.443 45.5146 173.536 45.228 173.512 44.9387C173.489 44.6495 173.353 44.3813 173.132 44.1933C172.912 44.0052 172.627 43.9126 172.339 43.9359C172.263 43.9421 167.255 44.2872 164.224 41.0812C164.025 40.8708 163.751 40.7484 163.462 40.741C163.173 40.7336 162.893 40.8418 162.683 41.0417C162.474 41.2416 162.352 41.517 162.345 41.8071C162.337 42.0973 162.445 42.3785 162.644 42.5889C165.684 45.8028 170.087 46.14 171.801 46.14Z" fill="#62667C"/>
<path d="M60.8282 159.093C61.0758 159.093 61.3177 159.02 61.5235 158.882C61.7294 158.745 61.8898 158.549 61.9845 158.321C62.0792 158.092 62.104 157.84 62.0557 157.598C62.0074 157.355 61.8882 157.132 61.7132 156.957C61.5382 156.782 61.3152 156.663 61.0724 156.614C60.8296 156.566 60.578 156.591 60.3493 156.686C60.1206 156.78 59.9251 156.941 59.7876 157.147C59.6501 157.352 59.5767 157.594 59.5767 157.842C59.5771 158.174 59.7091 158.492 59.9437 158.726C60.1784 158.961 60.4964 159.093 60.8282 159.093Z" fill="black"/>
<path d="M53.7401 198.258C53.5071 197.446 52.8727 196.421 52.176 195.708C51.4793 194.996 50.6173 194.47 49.668 194.177C48.8658 193.096 48.3683 191.817 48.2278 190.474C50.9748 188.908 52.9961 186.311 53.8512 183.25C55.0264 182.959 57.3704 182.155 58.5091 180.219C58.738 180.391 58.9322 180.606 59.0815 180.851C59.23 181.08 59.4623 181.24 59.7277 181.298C59.9932 181.355 60.2703 181.304 60.4988 181.156C60.8327 180.954 61.2196 180.857 61.6089 180.879C61.9982 180.901 62.3719 181.041 62.6812 181.28C62.8171 181.391 62.9788 181.465 63.1511 181.495C63.3233 181.526 63.5004 181.511 63.6656 181.453C63.8307 181.395 63.9784 181.296 64.0948 181.164C64.2112 181.033 64.2923 180.874 64.3306 180.702C64.5568 179.729 64.4603 178.709 64.056 177.797C63.6516 176.885 62.9616 176.132 62.0918 175.653C63.0408 173.948 63.5412 172.026 63.5455 170.071C65.7872 169.581 70.5915 168.227 71.1644 165.534C71.4667 164.405 71.6392 163.245 71.6786 162.076C71.6574 161.928 71.6047 161.786 71.524 161.661C71.4434 161.535 71.3366 161.428 71.2112 161.348C71.0858 161.268 70.9446 161.216 70.7973 161.196C70.6501 161.176 70.5003 161.188 70.3582 161.232C68.5613 161.755 66.7167 162.095 64.8524 162.246C64.9914 162.127 65.133 162.001 65.2772 161.867C67.2686 160.009 68.8293 159.388 70.8389 159.649C70.9839 159.669 71.1313 159.656 71.2713 159.613C71.4112 159.571 71.5405 159.498 71.6504 159.401C71.7603 159.304 71.8483 159.184 71.9086 159.05C71.9689 158.915 72.0001 158.77 72 158.622C72 158.427 71.9606 153.823 68.5566 152.441C66.3866 151.559 65.2584 152.19 64.3523 152.696C63.9543 152.969 63.4916 153.131 63.0114 153.165C62.8286 153.169 62.6118 153.165 62.3709 153.165C59.9782 153.142 54.3842 153.089 53.4928 158.885C53.414 159.397 53.3453 159.884 53.2789 160.348C52.6519 164.765 52.4168 166.418 47.4257 167.558C40.9591 169.035 35.1965 171.262 30.1595 183.617C29.8346 184.563 29.2314 185.388 28.4303 185.98C27.6292 186.572 26.6681 186.905 25.6749 186.933C24.5552 186.977 23.4449 186.711 22.4645 186.164C21.484 185.617 20.6707 184.811 20.1126 183.832C19.3052 182.212 19.6284 180.416 21.0481 178.637C21.212 178.432 21.2924 178.172 21.2727 177.909C21.2531 177.647 21.135 177.401 20.9424 177.223C20.7498 177.045 20.4972 176.948 20.2359 176.951C19.9746 176.954 19.7242 177.057 19.5356 177.239C19.3828 177.387 15.7872 180.91 16.0099 185.313C16.1333 187.789 17.4172 190.004 19.8253 191.898C21.9024 193.584 24.4914 194.5 27.1586 194.492C30.9898 194.492 34.6835 192.724 37.5592 190.821C37.5673 191.535 37.4083 192.242 37.095 192.883C37.0248 193.029 36.9896 193.19 36.9923 193.352C36.9949 193.514 37.0353 193.674 37.1103 193.817C37.7894 195.203 38.1807 196.715 38.2602 198.258C38.2602 198.533 38.0674 199.806 38.2602 200H53.973C53.973 199.725 53.973 199.069 53.7401 198.258ZM21.091 190.264C19.1783 188.76 18.16 187.062 18.0648 185.219C18.0497 184.925 18.0568 184.631 18.0859 184.338C18.1488 184.491 18.2135 184.635 18.2775 184.761C19.0115 186.097 20.0994 187.201 21.4197 187.95C22.74 188.699 24.2408 189.063 25.7548 189.003C27.1418 188.959 28.4839 188.497 29.6082 187.677C30.7326 186.858 31.5879 185.718 32.0639 184.404C36.7342 172.951 41.7765 170.973 47.8823 169.578C54.2543 168.123 54.6774 165.147 55.3173 160.641C55.3819 160.185 55.4501 159.705 55.5276 159.202C56.0988 155.489 59.3471 155.206 62.3539 155.235C62.6183 155.235 62.8551 155.239 63.059 155.235C63.8747 155.2 64.6669 154.949 65.3554 154.506C66.0887 154.096 66.5306 153.848 67.7927 154.36C69.1278 154.902 69.6361 156.447 69.83 157.519C67.7528 157.563 65.9142 158.45 63.8852 160.343C62.1259 161.985 61.0564 161.93 61.0858 161.936C60.8281 161.892 60.5635 161.949 60.3458 162.095C60.1281 162.24 59.9736 162.464 59.9137 162.721C59.8539 162.977 59.8931 163.247 60.0235 163.475C60.1539 163.703 60.3657 163.873 60.6157 163.949C63.4703 164.791 67.3409 164.11 69.4486 163.611C69.3793 163.996 69.2847 164.483 69.1548 165.096C68.8822 166.378 64.9828 167.726 62.2728 168.207C62.0111 168.254 61.7775 168.401 61.6208 168.617C61.4642 168.833 61.3967 169.102 61.4325 169.368C61.751 171.72 60.7197 173.907 60.1298 174.933C59.173 174.609 58.1702 174.442 57.1606 174.441C57.0243 174.451 56.8913 174.489 56.7694 174.551C56.6476 174.613 56.5392 174.699 56.4508 174.804C56.3623 174.909 56.2955 175.031 56.2542 175.162C56.213 175.293 56.1981 175.432 56.2105 175.569C56.2229 175.706 56.2623 175.839 56.3263 175.961C56.3904 176.082 56.4779 176.19 56.5837 176.277C56.6895 176.364 56.8115 176.429 56.9425 176.468C57.0736 176.508 57.211 176.52 57.3469 176.505C58.3339 176.577 59.3056 176.791 60.232 177.142C60.242 177.146 60.2526 177.142 60.2626 177.147C60.2726 177.153 60.2919 177.162 60.3084 177.166C60.7545 177.244 61.1714 177.442 61.5153 177.739C61.8593 178.035 62.1177 178.42 62.2634 178.852C61.5904 178.73 60.8978 178.782 60.2502 179.003C59.9494 178.646 59.5687 178.367 59.1396 178.188C58.7104 178.009 58.2452 177.936 57.7823 177.974C57.596 178.004 57.4213 178.084 57.2774 178.207C57.1335 178.33 57.0258 178.49 56.9661 178.67C56.5465 179.937 55.1898 180.637 54.1491 181C54.1788 179.135 53.7279 177.294 52.8405 175.657C52.7743 175.538 52.6855 175.434 52.5792 175.349C52.4729 175.265 52.3511 175.203 52.2209 175.166C52.0906 175.129 51.9544 175.118 51.8201 175.134C51.6858 175.15 51.5559 175.193 51.4379 175.26C51.3199 175.326 51.2161 175.416 51.1325 175.523C51.0488 175.63 50.9869 175.753 50.9503 175.884C50.9137 176.015 50.903 176.153 50.9191 176.288C50.9351 176.423 50.9774 176.554 51.0436 176.673C51.9312 178.353 52.2662 180.273 52.0002 182.157C51.6843 183.607 51.0488 184.967 50.1406 186.136C49.2325 187.305 48.0751 188.253 46.7541 188.91C46.5649 188.992 46.4044 189.129 46.2934 189.303C46.1824 189.478 46.1259 189.682 46.1312 189.889C46.1628 192.058 46.9432 194.148 48.3383 195.8C48.4683 195.937 48.6331 196.035 48.8148 196.085C49.3883 196.226 49.9234 196.494 50.3808 196.87C50.8383 197.246 51.2067 197.72 51.459 198.258H46.2499C45.7493 194.484 43.6286 191.048 42.7513 189.762C43.3461 188.447 43.5851 186.997 43.4441 185.558C43.7814 184.135 43.6903 182.642 43.1823 181.271C42.6743 179.9 41.7724 178.713 40.5919 177.861C40.375 177.698 40.103 177.627 39.835 177.665C39.567 177.703 39.3245 177.845 39.1601 178.062C38.9957 178.278 38.9227 178.552 38.9568 178.822C38.991 179.093 39.1296 179.339 39.3426 179.507C40.1941 180.099 40.8514 180.934 41.2306 181.904C41.6099 182.874 41.6939 183.936 41.4721 184.954C40.0278 186.439 29.4091 196.81 21.091 190.267V190.264ZM39.1487 193.318C39.6351 192.093 39.7437 190.75 39.4601 189.462C40.11 188.962 40.6941 188.479 41.19 188.046C41.0574 188.505 40.8771 188.949 40.6524 189.371C40.559 189.546 40.5178 189.745 40.5335 189.943C40.5492 190.142 40.6213 190.331 40.7411 190.489C40.7717 190.53 43.5352 194.225 44.1698 198.255H40.3122C40.2448 196.55 39.8497 194.874 39.1487 193.32V193.318Z" fill="black"/>
<!-- <path d="M347.75 48C347.781 46.7812 348.043 45.668 348.535 44.6602C349.012 43.5273 350.137 42.3281 351.91 41.0625C353.449 39.9609 354.445 39.1719 354.898 38.6953C355.594 37.9531 355.941 37.1406 355.941 36.2578C355.941 35.5391 355.742 34.9414 355.344 34.4648C354.945 33.9883 354.375 33.75 353.633 33.75C352.617 33.75 351.926 34.1289 351.559 34.8867C351.348 35.3242 351.223 36.0195 351.184 36.9727H347.938C347.992 35.5273 348.254 34.3594 348.723 33.4688C349.613 31.7734 351.195 30.9258 353.469 30.9258C355.266 30.9258 356.695 31.4258 357.758 32.4258C358.82 33.418 359.352 34.7344 359.352 36.375C359.352 37.6328 358.977 38.75 358.227 39.7266C357.734 40.375 356.926 41.0977 355.801 41.8945L354.465 42.8438C353.629 43.4375 353.055 43.8672 352.742 44.1328C352.438 44.3984 352.18 44.707 351.969 45.0586H359.387V48H347.75ZM364.52 39.668C364.52 41.6211 364.68 43.1172 365 44.1562C365.32 45.1875 365.977 45.7031 366.969 45.7031C367.961 45.7031 368.609 45.1875 368.914 44.1562C369.227 43.1172 369.383 41.6211 369.383 39.668C369.383 37.6211 369.227 36.1055 368.914 35.1211C368.609 34.1367 367.961 33.6445 366.969 33.6445C365.977 33.6445 365.32 34.1367 365 35.1211C364.68 36.1055 364.52 37.6211 364.52 39.668ZM366.969 30.8906C369.133 30.8906 370.648 31.6523 371.516 33.1758C372.391 34.6992 372.828 36.8633 372.828 39.668C372.828 42.4727 372.391 44.6328 371.516 46.1484C370.648 47.6641 369.133 48.4219 366.969 48.4219C364.805 48.4219 363.285 47.6641 362.41 46.1484C361.543 44.6328 361.109 42.4727 361.109 39.668C361.109 36.8633 361.543 34.6992 362.41 33.1758C363.285 31.6523 364.805 30.8906 366.969 30.8906ZM374.469 48C374.5 46.7812 374.762 45.668 375.254 44.6602C375.73 43.5273 376.855 42.3281 378.629 41.0625C380.168 39.9609 381.164 39.1719 381.617 38.6953C382.312 37.9531 382.66 37.1406 382.66 36.2578C382.66 35.5391 382.461 34.9414 382.062 34.4648C381.664 33.9883 381.094 33.75 380.352 33.75C379.336 33.75 378.645 34.1289 378.277 34.8867C378.066 35.3242 377.941 36.0195 377.902 36.9727H374.656C374.711 35.5273 374.973 34.3594 375.441 33.4688C376.332 31.7734 377.914 30.9258 380.188 30.9258C381.984 30.9258 383.414 31.4258 384.477 32.4258C385.539 33.418 386.07 34.7344 386.07 36.375C386.07 37.6328 385.695 38.75 384.945 39.7266C384.453 40.375 383.645 41.0977 382.52 41.8945L381.184 42.8438C380.348 43.4375 379.773 43.8672 379.461 44.1328C379.156 44.3984 378.898 44.707 378.688 45.0586H386.105V48H374.469ZM388.742 36.2812V34.0078C389.797 33.9609 390.535 33.8906 390.957 33.7969C391.629 33.6484 392.176 33.3516 392.598 32.9062C392.887 32.6016 393.105 32.1953 393.254 31.6875C393.34 31.3828 393.383 31.1562 393.383 31.0078H396.16V48H392.738V36.2812H388.742ZM408.945 30.75H421.191V33.7852H412.531V37.7578H420.113V40.7578H412.531V48H408.945V30.75ZM431.223 45.4219C431.637 45.4219 432.035 45.3711 432.418 45.2695C432.629 45.2148 432.898 45.1172 433.227 44.9766L431.48 43.3125L433.344 41.3672L435.09 43.0312C435.363 42.4688 435.555 41.9766 435.664 41.5547C435.836 40.9219 435.922 40.1836 435.922 39.3398C435.922 37.4023 435.523 35.9062 434.727 34.8516C433.938 33.7891 432.781 33.2578 431.258 33.2578C429.828 33.2578 428.688 33.7656 427.836 34.7812C426.984 35.7969 426.559 37.3164 426.559 39.3398C426.559 41.707 427.168 43.4023 428.387 44.4258C429.176 45.0898 430.121 45.4219 431.223 45.4219ZM439.531 39.082C439.531 40.6211 439.344 41.9102 438.969 42.9492C438.664 43.9414 438.215 44.7656 437.621 45.4219L439.613 47.2852L437.727 49.2539L435.641 47.2852C435.008 47.668 434.461 47.9375 434 48.0938C433.227 48.3516 432.301 48.4805 431.223 48.4805C428.973 48.4805 427.113 47.8086 425.645 46.4648C423.863 44.8477 422.973 42.4727 422.973 39.3398C422.973 36.1836 423.887 33.7969 425.715 32.1797C427.207 30.8594 429.062 30.1992 431.281 30.1992C433.516 30.1992 435.391 30.8984 436.906 32.2969C438.656 33.9141 439.531 36.1758 439.531 39.082Z" fill="black"/> -->
<!-- <path d="M347 50.4023H440.457V51.5859H347V50.4023Z" fill="black"/> -->
<!-- <path d="M347.289 92.4609V88.6562H348.328C348.438 88.4062 348.539 88.1536 348.633 87.8984C348.727 87.638 348.812 87.3464 348.891 87.0234C348.974 86.6953 349.049 86.3203 349.117 85.8984C349.19 85.4766 349.258 84.9766 349.32 84.3984C349.393 83.7891 349.451 83.1901 349.492 82.6016C349.534 82.0078 349.565 81.4531 349.586 80.9375C349.612 80.4219 349.628 79.9557 349.633 79.5391C349.643 79.1224 349.651 78.7812 349.656 78.5156H356.875V88.6562H358.172V92.4609H356.734V90H348.727V92.4609H347.289ZM351.094 79.8594C351.094 80.6042 351.062 81.3464 351 82.0859C350.943 82.8255 350.872 83.5703 350.789 84.3203C350.732 84.9141 350.672 85.4193 350.609 85.8359C350.552 86.2474 350.49 86.6146 350.422 86.9375C350.359 87.2552 350.286 87.5495 350.203 87.8203C350.125 88.0859 350.034 88.3646 349.93 88.6562H355.297V79.8594H351.094ZM359.258 84.1406C359.273 83.6302 359.37 83.2005 359.547 82.8516C359.724 82.4974 359.964 82.2109 360.266 81.9922C360.568 81.7734 360.924 81.6172 361.336 81.5234C361.753 81.4245 362.206 81.375 362.695 81.375C363.102 81.375 363.495 81.4167 363.875 81.5C364.26 81.5833 364.602 81.7188 364.898 81.9062C365.195 82.0885 365.432 82.3281 365.609 82.625C365.792 82.9167 365.883 83.2734 365.883 83.6953V88.5625C365.883 88.6979 365.919 88.8151 365.992 88.9141C366.065 89.0078 366.182 89.0547 366.344 89.0547C366.417 89.0547 366.492 89.0495 366.57 89.0391C366.648 89.0234 366.729 89.0078 366.812 88.9922V89.9844C366.693 90.0156 366.573 90.0443 366.453 90.0703C366.339 90.0964 366.201 90.1094 366.039 90.1094C365.789 90.1094 365.573 90.0885 365.391 90.0469C365.214 90.0052 365.062 89.9375 364.938 89.8438C364.818 89.7448 364.724 89.6198 364.656 89.4688C364.589 89.3125 364.544 89.1224 364.523 88.8984C364.346 89.0911 364.159 89.2708 363.961 89.4375C363.763 89.599 363.542 89.7422 363.297 89.8672C363.052 89.987 362.779 90.0807 362.477 90.1484C362.174 90.2214 361.833 90.2578 361.453 90.2578C361.13 90.2578 360.815 90.2057 360.508 90.1016C360.206 89.9974 359.932 89.8438 359.688 89.6406C359.448 89.4375 359.255 89.1875 359.109 88.8906C358.964 88.5885 358.891 88.2396 358.891 87.8438C358.891 87.4115 358.964 87.0391 359.109 86.7266C359.255 86.4089 359.445 86.1458 359.68 85.9375C359.914 85.724 360.182 85.5599 360.484 85.4453C360.786 85.3307 361.094 85.2552 361.406 85.2188L363.758 84.9297C363.982 84.9036 364.156 84.8177 364.281 84.6719C364.411 84.5208 364.477 84.2812 364.477 83.9531C364.477 83.4479 364.31 83.0859 363.977 82.8672C363.648 82.6432 363.174 82.5312 362.555 82.5312C361.919 82.5312 361.445 82.6667 361.133 82.9375C360.82 83.2031 360.643 83.6042 360.602 84.1406H359.258ZM364.445 85.7422C364.331 85.8255 364.188 85.8958 364.016 85.9531C363.849 86.0052 363.664 86.0495 363.461 86.0859C363.258 86.1224 363.042 86.1562 362.812 86.1875C362.583 86.2135 362.354 86.2422 362.125 86.2734C361.865 86.3099 361.625 86.362 361.406 86.4297C361.188 86.4974 360.997 86.5859 360.836 86.6953C360.674 86.8047 360.549 86.9375 360.461 87.0938C360.372 87.2448 360.328 87.4245 360.328 87.6328C360.328 87.8724 360.365 88.0833 360.438 88.2656C360.516 88.4479 360.62 88.6016 360.75 88.7266C360.885 88.8516 361.047 88.9453 361.234 89.0078C361.422 89.0703 361.628 89.1016 361.852 89.1016C361.992 89.1016 362.154 89.0859 362.336 89.0547C362.518 89.0182 362.706 88.9661 362.898 88.8984C363.091 88.8307 363.279 88.7448 363.461 88.6406C363.648 88.5312 363.815 88.401 363.961 88.25C364.107 88.099 364.224 87.9271 364.312 87.7344C364.401 87.5417 364.445 87.3255 364.445 87.0859V85.7422ZM370.406 82.8828H367.523V81.6328H374.727V82.8828H371.844V90H370.406V82.8828ZM376.164 84.1406C376.18 83.6302 376.276 83.2005 376.453 82.8516C376.63 82.4974 376.87 82.2109 377.172 81.9922C377.474 81.7734 377.831 81.6172 378.242 81.5234C378.659 81.4245 379.112 81.375 379.602 81.375C380.008 81.375 380.401 81.4167 380.781 81.5C381.167 81.5833 381.508 81.7188 381.805 81.9062C382.102 82.0885 382.339 82.3281 382.516 82.625C382.698 82.9167 382.789 83.2734 382.789 83.6953V88.5625C382.789 88.6979 382.826 88.8151 382.898 88.9141C382.971 89.0078 383.089 89.0547 383.25 89.0547C383.323 89.0547 383.398 89.0495 383.477 89.0391C383.555 89.0234 383.635 89.0078 383.719 88.9922V89.9844C383.599 90.0156 383.479 90.0443 383.359 90.0703C383.245 90.0964 383.107 90.1094 382.945 90.1094C382.695 90.1094 382.479 90.0885 382.297 90.0469C382.12 90.0052 381.969 89.9375 381.844 89.8438C381.724 89.7448 381.63 89.6198 381.562 89.4688C381.495 89.3125 381.451 89.1224 381.43 88.8984C381.253 89.0911 381.065 89.2708 380.867 89.4375C380.669 89.599 380.448 89.7422 380.203 89.8672C379.958 89.987 379.685 90.0807 379.383 90.1484C379.081 90.2214 378.74 90.2578 378.359 90.2578C378.036 90.2578 377.721 90.2057 377.414 90.1016C377.112 89.9974 376.839 89.8438 376.594 89.6406C376.354 89.4375 376.161 89.1875 376.016 88.8906C375.87 88.5885 375.797 88.2396 375.797 87.8438C375.797 87.4115 375.87 87.0391 376.016 86.7266C376.161 86.4089 376.352 86.1458 376.586 85.9375C376.82 85.724 377.089 85.5599 377.391 85.4453C377.693 85.3307 378 85.2552 378.312 85.2188L380.664 84.9297C380.888 84.9036 381.062 84.8177 381.188 84.6719C381.318 84.5208 381.383 84.2812 381.383 83.9531C381.383 83.4479 381.216 83.0859 380.883 82.8672C380.555 82.6432 380.081 82.5312 379.461 82.5312C378.826 82.5312 378.352 82.6667 378.039 82.9375C377.727 83.2031 377.549 83.6042 377.508 84.1406H376.164ZM381.352 85.7422C381.237 85.8255 381.094 85.8958 380.922 85.9531C380.755 86.0052 380.57 86.0495 380.367 86.0859C380.164 86.1224 379.948 86.1562 379.719 86.1875C379.49 86.2135 379.26 86.2422 379.031 86.2734C378.771 86.3099 378.531 86.362 378.312 86.4297C378.094 86.4974 377.904 86.5859 377.742 86.6953C377.581 86.8047 377.456 86.9375 377.367 87.0938C377.279 87.2448 377.234 87.4245 377.234 87.6328C377.234 87.8724 377.271 88.0833 377.344 88.2656C377.422 88.4479 377.526 88.6016 377.656 88.7266C377.792 88.8516 377.953 88.9453 378.141 89.0078C378.328 89.0703 378.534 89.1016 378.758 89.1016C378.898 89.1016 379.06 89.0859 379.242 89.0547C379.424 89.0182 379.612 88.9661 379.805 88.8984C379.997 88.8307 380.185 88.7448 380.367 88.6406C380.555 88.5312 380.721 88.401 380.867 88.25C381.013 88.099 381.13 87.9271 381.219 87.7344C381.307 87.5417 381.352 87.3255 381.352 87.0859V85.7422Z" fill="black"/> -->
<!-- <line x1="385" y1="89.52" x2="504" y2="89.5032" stroke="black" stroke-dasharray="1 1"/>
<path d="M505.688 82.0781V81C506.703 80.901 507.411 80.737 507.812 80.5078C508.214 80.2734 508.513 79.724 508.711 78.8594H509.82V90H508.32V82.0781H505.688ZM513.562 90C513.615 89.0365 513.812 88.1979 514.156 87.4844C514.505 86.7708 515.182 86.1224 516.188 85.5391L517.688 84.6719C518.359 84.2812 518.831 83.9479 519.102 83.6719C519.529 83.2396 519.742 82.7448 519.742 82.1875C519.742 81.5365 519.547 81.0208 519.156 80.6406C518.766 80.2552 518.245 80.0625 517.594 80.0625C516.63 80.0625 515.964 80.4271 515.594 81.1562C515.396 81.5469 515.286 82.0885 515.266 82.7812H513.836C513.852 81.8073 514.031 81.013 514.375 80.3984C514.984 79.3151 516.06 78.7734 517.602 78.7734C518.883 78.7734 519.818 79.1198 520.406 79.8125C521 80.5052 521.297 81.276 521.297 82.125C521.297 83.0208 520.982 83.7865 520.352 84.4219C519.987 84.7917 519.333 85.2396 518.391 85.7656L517.32 86.3594C516.81 86.6406 516.409 86.9089 516.117 87.1641C515.596 87.6172 515.268 88.1198 515.133 88.6719H521.242V90H513.562ZM534.055 87.0547C534.034 87.2578 533.992 87.4792 533.93 87.7188C533.872 87.9583 533.786 88.1979 533.672 88.4375C533.557 88.6719 533.409 88.8984 533.227 89.1172C533.049 89.3359 532.831 89.5312 532.57 89.7031C532.315 89.8698 532.013 90.0026 531.664 90.1016C531.315 90.2057 530.917 90.2578 530.469 90.2578C530.224 90.2578 529.966 90.2266 529.695 90.1641C529.424 90.1068 529.159 90.0078 528.898 89.8672C528.643 89.7266 528.398 89.5469 528.164 89.3281C527.935 89.1042 527.732 88.8281 527.555 88.5C527.383 88.1719 527.245 87.7917 527.141 87.3594C527.036 86.9219 526.984 86.4219 526.984 85.8594C526.984 85.1667 527.083 84.5443 527.281 83.9922C527.479 83.4349 527.742 82.9635 528.07 82.5781C528.404 82.1927 528.789 81.8958 529.227 81.6875C529.669 81.4792 530.133 81.375 530.617 81.375C531.055 81.375 531.44 81.4219 531.773 81.5156C532.112 81.6094 532.406 81.7344 532.656 81.8906C532.906 82.0469 533.117 82.2292 533.289 82.4375C533.461 82.6406 533.599 82.8568 533.703 83.0859C533.812 83.3099 533.893 83.5391 533.945 83.7734C534.003 84.0078 534.039 84.2318 534.055 84.4453H532.711C532.638 83.8776 532.44 83.4323 532.117 83.1094C531.799 82.7865 531.352 82.625 530.773 82.625C530.378 82.625 530.031 82.7057 529.734 82.8672C529.443 83.0286 529.198 83.2552 529 83.5469C528.807 83.8333 528.661 84.1823 528.562 84.5938C528.469 85 528.422 85.4479 528.422 85.9375C528.422 86.4896 528.474 86.9661 528.578 87.3672C528.682 87.763 528.831 88.0911 529.023 88.3516C529.216 88.6068 529.451 88.7969 529.727 88.9219C530.008 89.0417 530.326 89.1016 530.68 89.1016C530.93 89.1016 531.167 89.0573 531.391 88.9688C531.615 88.875 531.815 88.7422 531.992 88.5703C532.169 88.3932 532.32 88.1771 532.445 87.9219C532.57 87.6667 532.659 87.3776 532.711 87.0547H534.055ZM542.602 87.3281C542.544 87.6927 542.419 88.0495 542.227 88.3984C542.034 88.7474 541.781 89.0599 541.469 89.3359C541.156 89.612 540.786 89.8333 540.359 90C539.938 90.1719 539.469 90.2578 538.953 90.2578C538.391 90.2578 537.87 90.1667 537.391 89.9844C536.917 89.7969 536.505 89.5182 536.156 89.1484C535.812 88.7734 535.542 88.3047 535.344 87.7422C535.146 87.1797 535.047 86.5182 535.047 85.7578C535.047 85.2474 535.102 84.7865 535.211 84.375C535.326 83.9583 535.477 83.5885 535.664 83.2656C535.857 82.9375 536.078 82.6562 536.328 82.4219C536.578 82.1823 536.841 81.987 537.117 81.8359C537.398 81.6797 537.685 81.5651 537.977 81.4922C538.268 81.4141 538.549 81.375 538.82 81.375C539.393 81.375 539.917 81.4609 540.391 81.6328C540.865 81.8047 541.271 82.0677 541.609 82.4219C541.953 82.7708 542.219 83.2109 542.406 83.7422C542.599 84.2682 542.695 84.888 542.695 85.6016V86.3203H536.578C536.583 86.7266 536.641 87.0964 536.75 87.4297C536.859 87.7578 537.016 88.0391 537.219 88.2734C537.422 88.5078 537.667 88.6901 537.953 88.8203C538.245 88.9453 538.573 89.0078 538.938 89.0078C539.307 89.0078 539.62 88.9557 539.875 88.8516C540.13 88.7474 540.344 88.6146 540.516 88.4531C540.688 88.2917 540.826 88.112 540.93 87.9141C541.039 87.7161 541.13 87.5208 541.203 87.3281H542.602ZM541.25 85.1719C541.24 84.7656 541.177 84.4036 541.062 84.0859C540.953 83.7682 540.797 83.5026 540.594 83.2891C540.396 83.0703 540.156 82.9062 539.875 82.7969C539.594 82.6823 539.281 82.625 538.938 82.625C538.609 82.625 538.307 82.6901 538.031 82.8203C537.755 82.9453 537.513 83.1224 537.305 83.3516C537.096 83.5755 536.93 83.8438 536.805 84.1562C536.68 84.4635 536.604 84.8021 536.578 85.1719H541.25ZM544.383 81.6328H545.82V85.0078H549.727V81.6328H551.172V90H549.727V86.2578H545.82V90H544.383V81.6328ZM555.516 82.8828H552.633V81.6328H559.836V82.8828H556.953V90H555.516V82.8828ZM568.094 90H566.648V86.6875H564.797C564.464 86.6875 564.172 86.6953 563.922 86.7109C563.677 86.7214 563.469 86.7682 563.297 86.8516C563.125 86.9349 562.99 87.0651 562.891 87.2422C562.797 87.4193 562.737 87.6719 562.711 88L562.648 88.8984C562.643 88.9245 562.638 88.9766 562.633 89.0547C562.628 89.1328 562.617 89.2266 562.602 89.3359C562.586 89.4401 562.565 89.5521 562.539 89.6719C562.513 89.7917 562.482 89.901 562.445 90H560.859C560.896 89.9531 560.93 89.9062 560.961 89.8594C560.997 89.8073 561.031 89.737 561.062 89.6484C561.099 89.5599 561.13 89.4453 561.156 89.3047C561.188 89.1641 561.216 88.9844 561.242 88.7656L561.336 87.6953C561.367 87.4141 561.404 87.1849 561.445 87.0078C561.492 86.8307 561.555 86.6849 561.633 86.5703C561.716 86.4505 561.823 86.3542 561.953 86.2812C562.083 86.2031 562.247 86.125 562.445 86.0469C561.549 85.724 561.102 85.0625 561.102 84.0625C561.102 83.8125 561.133 83.5833 561.195 83.375C561.258 83.1615 561.339 82.9714 561.438 82.8047C561.542 82.638 561.656 82.4922 561.781 82.3672C561.911 82.237 562.042 82.1302 562.172 82.0469C562.333 81.9427 562.51 81.8646 562.703 81.8125C562.896 81.7552 563.089 81.7135 563.281 81.6875C563.479 81.6615 563.672 81.6458 563.859 81.6406C564.047 81.6354 564.219 81.6328 564.375 81.6328H568.094V90ZM566.648 82.8984H564.461C564.273 82.8984 564.112 82.901 563.977 82.9062C563.841 82.9062 563.721 82.9115 563.617 82.9219C563.518 82.9323 563.427 82.9505 563.344 82.9766C563.26 83.0026 563.174 83.0391 563.086 83.0859C562.904 83.1901 562.763 83.3438 562.664 83.5469C562.57 83.75 562.523 83.9661 562.523 84.1953C562.523 84.4193 562.557 84.6094 562.625 84.7656C562.693 84.9167 562.781 85.0417 562.891 85.1406C563.005 85.2396 563.13 85.3177 563.266 85.375C563.406 85.4271 563.547 85.4661 563.688 85.4922C563.833 85.513 563.974 85.526 564.109 85.5312C564.245 85.5365 564.362 85.5391 564.461 85.5391H566.648V82.8984ZM576.727 78.4141C576.716 78.4922 576.701 78.5885 576.68 78.7031C576.664 78.8125 576.63 78.9297 576.578 79.0547C576.526 79.1797 576.453 79.3073 576.359 79.4375C576.271 79.5625 576.151 79.6797 576 79.7891C575.917 79.8464 575.841 79.8958 575.773 79.9375C575.706 79.9792 575.62 80.0156 575.516 80.0469C575.411 80.0781 575.279 80.1042 575.117 80.125C574.956 80.1458 574.74 80.1589 574.469 80.1641L573.875 80.1797C573.469 80.1901 573.102 80.2734 572.773 80.4297C572.451 80.5807 572.164 80.7943 571.914 81.0703C571.669 81.3411 571.466 81.6693 571.305 82.0547C571.143 82.4401 571.023 82.8698 570.945 83.3438C571.055 83.1354 571.19 82.9323 571.352 82.7344C571.513 82.5312 571.714 82.3516 571.953 82.1953C572.193 82.0339 572.474 81.9062 572.797 81.8125C573.12 81.7135 573.495 81.6641 573.922 81.6641C574.406 81.6641 574.865 81.75 575.297 81.9219C575.734 82.0938 576.115 82.3516 576.438 82.6953C576.766 83.0391 577.026 83.4661 577.219 83.9766C577.411 84.487 577.508 85.0807 577.508 85.7578C577.508 85.9714 577.492 86.2318 577.461 86.5391C577.43 86.8411 577.367 87.1589 577.273 87.4922C577.18 87.8255 577.044 88.1589 576.867 88.4922C576.695 88.8203 576.464 89.1146 576.172 89.375C575.885 89.6354 575.534 89.8464 575.117 90.0078C574.706 90.1745 574.211 90.2578 573.633 90.2578C573.393 90.2578 573.138 90.237 572.867 90.1953C572.602 90.1589 572.333 90.0885 572.062 89.9844C571.797 89.8802 571.536 89.7344 571.281 89.5469C571.031 89.3594 570.802 89.1198 570.594 88.8281C570.49 88.6823 570.385 88.5156 570.281 88.3281C570.182 88.1354 570.091 87.9036 570.008 87.6328C569.924 87.362 569.857 87.0417 569.805 86.6719C569.758 86.3021 569.734 85.8646 569.734 85.3594C569.734 85.026 569.75 84.6484 569.781 84.2266C569.812 83.8047 569.867 83.375 569.945 82.9375C570.023 82.5 570.128 82.0781 570.258 81.6719C570.388 81.2604 570.555 80.901 570.758 80.5938C570.977 80.2604 571.206 79.9896 571.445 79.7812C571.685 79.5729 571.94 79.4089 572.211 79.2891C572.482 79.1693 572.773 79.0833 573.086 79.0312C573.398 78.9792 573.737 78.9453 574.102 78.9297L574.609 78.9141C574.776 78.9089 574.917 78.901 575.031 78.8906C575.151 78.875 575.25 78.8516 575.328 78.8203C575.406 78.7891 575.469 78.7422 575.516 78.6797C575.562 78.6172 575.602 78.5286 575.633 78.4141H576.727ZM571.172 85.9688C571.172 86.125 571.18 86.3099 571.195 86.5234C571.216 86.737 571.255 86.9609 571.312 87.1953C571.37 87.4245 571.453 87.6536 571.562 87.8828C571.672 88.112 571.815 88.3177 571.992 88.5C572.174 88.6771 572.398 88.8229 572.664 88.9375C572.93 89.0469 573.247 89.1016 573.617 89.1016C574.029 89.1016 574.375 89.0365 574.656 88.9062C574.938 88.7708 575.169 88.599 575.352 88.3906C575.534 88.1771 575.672 87.9427 575.766 87.6875C575.865 87.4323 575.935 87.1849 575.977 86.9453C576.023 86.7005 576.049 86.4792 576.055 86.2812C576.065 86.0781 576.07 85.9245 576.07 85.8203C576.07 85.4401 576.026 85.0677 575.938 84.7031C575.854 84.3385 575.716 84.0156 575.523 83.7344C575.336 83.4531 575.089 83.2266 574.781 83.0547C574.479 82.8828 574.107 82.7969 573.664 82.7969C573.232 82.7969 572.859 82.8828 572.547 83.0547C572.234 83.2214 571.977 83.4505 571.773 83.7422C571.57 84.0286 571.419 84.3646 571.32 84.75C571.221 85.1302 571.172 85.5365 571.172 85.9688ZM579.055 81.6328H580.492V82.7812H580.523C580.617 82.5885 580.734 82.4062 580.875 82.2344C581.021 82.0625 581.193 81.9141 581.391 81.7891C581.594 81.6589 581.826 81.5573 582.086 81.4844C582.352 81.4115 582.654 81.375 582.992 81.375C583.44 81.375 583.87 81.4609 584.281 81.6328C584.693 81.8047 585.057 82.0625 585.375 82.4062C585.693 82.75 585.945 83.1823 586.133 83.7031C586.32 84.2188 586.414 84.8203 586.414 85.5078C586.414 86.3672 586.326 87.099 586.148 87.7031C585.977 88.3021 585.729 88.7917 585.406 89.1719C585.089 89.5521 584.703 89.8281 584.25 90C583.797 90.1719 583.292 90.2578 582.734 90.2578C582.458 90.2578 582.201 90.2214 581.961 90.1484C581.721 90.0755 581.505 89.9818 581.312 89.8672C581.125 89.7474 580.964 89.6172 580.828 89.4766C580.693 89.3307 580.591 89.1901 580.523 89.0547H580.492V93.2969H579.055V81.6328ZM580.461 85.8594C580.461 86.3125 580.505 86.7318 580.594 87.1172C580.682 87.4974 580.818 87.8281 581 88.1094C581.188 88.3906 581.419 88.612 581.695 88.7734C581.977 88.9297 582.307 89.0078 582.688 89.0078C583.083 89.0078 583.424 88.9297 583.711 88.7734C584.003 88.612 584.242 88.3906 584.43 88.1094C584.617 87.8281 584.755 87.4974 584.844 87.1172C584.932 86.7318 584.977 86.3125 584.977 85.8594C584.977 85.3854 584.932 84.9505 584.844 84.5547C584.755 84.1589 584.617 83.8177 584.43 83.5312C584.242 83.2448 584.003 83.0234 583.711 82.8672C583.424 82.7057 583.083 82.625 582.688 82.625C582.307 82.625 581.977 82.7057 581.695 82.8672C581.419 83.0234 581.188 83.2448 581 83.5312C580.818 83.8177 580.682 84.1589 580.594 84.5547C580.505 84.9505 580.461 85.3854 580.461 85.8594ZM594.844 90H593.398V86.6875H591.547C591.214 86.6875 590.922 86.6953 590.672 86.7109C590.427 86.7214 590.219 86.7682 590.047 86.8516C589.875 86.9349 589.74 87.0651 589.641 87.2422C589.547 87.4193 589.487 87.6719 589.461 88L589.398 88.8984C589.393 88.9245 589.388 88.9766 589.383 89.0547C589.378 89.1328 589.367 89.2266 589.352 89.3359C589.336 89.4401 589.315 89.5521 589.289 89.6719C589.263 89.7917 589.232 89.901 589.195 90H587.609C587.646 89.9531 587.68 89.9062 587.711 89.8594C587.747 89.8073 587.781 89.737 587.812 89.6484C587.849 89.5599 587.88 89.4453 587.906 89.3047C587.938 89.1641 587.966 88.9844 587.992 88.7656L588.086 87.6953C588.117 87.4141 588.154 87.1849 588.195 87.0078C588.242 86.8307 588.305 86.6849 588.383 86.5703C588.466 86.4505 588.573 86.3542 588.703 86.2812C588.833 86.2031 588.997 86.125 589.195 86.0469C588.299 85.724 587.852 85.0625 587.852 84.0625C587.852 83.8125 587.883 83.5833 587.945 83.375C588.008 83.1615 588.089 82.9714 588.188 82.8047C588.292 82.638 588.406 82.4922 588.531 82.3672C588.661 82.237 588.792 82.1302 588.922 82.0469C589.083 81.9427 589.26 81.8646 589.453 81.8125C589.646 81.7552 589.839 81.7135 590.031 81.6875C590.229 81.6615 590.422 81.6458 590.609 81.6406C590.797 81.6354 590.969 81.6328 591.125 81.6328H594.844V90ZM593.398 82.8984H591.211C591.023 82.8984 590.862 82.901 590.727 82.9062C590.591 82.9062 590.471 82.9115 590.367 82.9219C590.268 82.9323 590.177 82.9505 590.094 82.9766C590.01 83.0026 589.924 83.0391 589.836 83.0859C589.654 83.1901 589.513 83.3438 589.414 83.5469C589.32 83.75 589.273 83.9661 589.273 84.1953C589.273 84.4193 589.307 84.6094 589.375 84.7656C589.443 84.9167 589.531 85.0417 589.641 85.1406C589.755 85.2396 589.88 85.3177 590.016 85.375C590.156 85.4271 590.297 85.4661 590.438 85.4922C590.583 85.513 590.724 85.526 590.859 85.5312C590.995 85.5365 591.112 85.5391 591.211 85.5391H593.398V82.8984ZM600.875 90C600.927 89.0365 601.125 88.1979 601.469 87.4844C601.818 86.7708 602.495 86.1224 603.5 85.5391L605 84.6719C605.672 84.2812 606.143 83.9479 606.414 83.6719C606.841 83.2396 607.055 82.7448 607.055 82.1875C607.055 81.5365 606.859 81.0208 606.469 80.6406C606.078 80.2552 605.557 80.0625 604.906 80.0625C603.943 80.0625 603.276 80.4271 602.906 81.1562C602.708 81.5469 602.599 82.0885 602.578 82.7812H601.148C601.164 81.8073 601.344 81.013 601.688 80.3984C602.297 79.3151 603.372 78.7734 604.914 78.7734C606.195 78.7734 607.13 79.1198 607.719 79.8125C608.312 80.5052 608.609 81.276 608.609 82.125C608.609 83.0208 608.294 83.7865 607.664 84.4219C607.299 84.7917 606.646 85.2396 605.703 85.7656L604.633 86.3594C604.122 86.6406 603.721 86.9089 603.43 87.1641C602.909 87.6172 602.581 88.1198 602.445 88.6719H608.555V90H600.875ZM613.609 78.8125C615.057 78.8125 616.104 79.4089 616.75 80.6016C617.25 81.5234 617.5 82.7865 617.5 84.3906C617.5 85.9115 617.273 87.1693 616.82 88.1641C616.164 89.5911 615.091 90.3047 613.602 90.3047C612.258 90.3047 611.258 89.7214 610.602 88.5547C610.055 87.5807 609.781 86.2734 609.781 84.6328C609.781 83.362 609.945 82.2708 610.273 81.3594C610.888 79.6615 612 78.8125 613.609 78.8125ZM613.594 89.0234C614.323 89.0234 614.904 88.7005 615.336 88.0547C615.768 87.4089 615.984 86.2057 615.984 84.4453C615.984 83.1745 615.828 82.1302 615.516 81.3125C615.203 80.4896 614.596 80.0781 613.695 80.0781C612.867 80.0781 612.26 80.4688 611.875 81.25C611.495 82.026 611.305 83.1719 611.305 84.6875C611.305 85.8281 611.427 86.7448 611.672 87.4375C612.047 88.4948 612.688 89.0234 613.594 89.0234ZM618.688 90C618.74 89.0365 618.938 88.1979 619.281 87.4844C619.63 86.7708 620.307 86.1224 621.312 85.5391L622.812 84.6719C623.484 84.2812 623.956 83.9479 624.227 83.6719C624.654 83.2396 624.867 82.7448 624.867 82.1875C624.867 81.5365 624.672 81.0208 624.281 80.6406C623.891 80.2552 623.37 80.0625 622.719 80.0625C621.755 80.0625 621.089 80.4271 620.719 81.1562C620.521 81.5469 620.411 82.0885 620.391 82.7812H618.961C618.977 81.8073 619.156 81.013 619.5 80.3984C620.109 79.3151 621.185 78.7734 622.727 78.7734C624.008 78.7734 624.943 79.1198 625.531 79.8125C626.125 80.5052 626.422 81.276 626.422 82.125C626.422 83.0208 626.107 83.7865 625.477 84.4219C625.112 84.7917 624.458 85.2396 623.516 85.7656L622.445 86.3594C621.935 86.6406 621.534 86.9089 621.242 87.1641C620.721 87.6172 620.393 88.1198 620.258 88.6719H626.367V90H618.688ZM628.625 82.0781V81C629.641 80.901 630.349 80.737 630.75 80.5078C631.151 80.2734 631.451 79.724 631.648 78.8594H632.758V90H631.258V82.0781H628.625Z" fill="black"/>
<path d="M352.859 115.891C353.672 115.891 354.258 115.719 354.617 115.375C354.977 115.031 355.156 114.531 355.156 113.875C355.156 113.219 354.977 112.719 354.617 112.375C354.258 112.031 353.672 111.859 352.859 111.859H349.719V115.891H352.859ZM348.188 110.516H353.016C353.646 110.516 354.19 110.596 354.648 110.758C355.112 110.919 355.495 111.148 355.797 111.445C356.099 111.737 356.323 112.089 356.469 112.5C356.62 112.911 356.695 113.37 356.695 113.875C356.695 114.38 356.62 114.839 356.469 115.25C356.323 115.661 356.099 116.016 355.797 116.312C355.495 116.604 355.112 116.831 354.648 116.992C354.19 117.154 353.646 117.234 353.016 117.234H349.719V122H348.188V110.516ZM358.711 116.141C358.727 115.63 358.823 115.201 359 114.852C359.177 114.497 359.417 114.211 359.719 113.992C360.021 113.773 360.378 113.617 360.789 113.523C361.206 113.424 361.659 113.375 362.148 113.375C362.555 113.375 362.948 113.417 363.328 113.5C363.714 113.583 364.055 113.719 364.352 113.906C364.648 114.089 364.885 114.328 365.062 114.625C365.245 114.917 365.336 115.273 365.336 115.695V120.562C365.336 120.698 365.372 120.815 365.445 120.914C365.518 121.008 365.635 121.055 365.797 121.055C365.87 121.055 365.945 121.049 366.023 121.039C366.102 121.023 366.182 121.008 366.266 120.992V121.984C366.146 122.016 366.026 122.044 365.906 122.07C365.792 122.096 365.654 122.109 365.492 122.109C365.242 122.109 365.026 122.089 364.844 122.047C364.667 122.005 364.516 121.938 364.391 121.844C364.271 121.745 364.177 121.62 364.109 121.469C364.042 121.312 363.997 121.122 363.977 120.898C363.799 121.091 363.612 121.271 363.414 121.438C363.216 121.599 362.995 121.742 362.75 121.867C362.505 121.987 362.232 122.081 361.93 122.148C361.628 122.221 361.286 122.258 360.906 122.258C360.583 122.258 360.268 122.206 359.961 122.102C359.659 121.997 359.385 121.844 359.141 121.641C358.901 121.438 358.708 121.188 358.562 120.891C358.417 120.589 358.344 120.24 358.344 119.844C358.344 119.411 358.417 119.039 358.562 118.727C358.708 118.409 358.898 118.146 359.133 117.938C359.367 117.724 359.635 117.56 359.938 117.445C360.24 117.331 360.547 117.255 360.859 117.219L363.211 116.93C363.435 116.904 363.609 116.818 363.734 116.672C363.865 116.521 363.93 116.281 363.93 115.953C363.93 115.448 363.763 115.086 363.43 114.867C363.102 114.643 362.628 114.531 362.008 114.531C361.372 114.531 360.898 114.667 360.586 114.938C360.273 115.203 360.096 115.604 360.055 116.141H358.711ZM363.898 117.742C363.784 117.826 363.641 117.896 363.469 117.953C363.302 118.005 363.117 118.049 362.914 118.086C362.711 118.122 362.495 118.156 362.266 118.188C362.036 118.214 361.807 118.242 361.578 118.273C361.318 118.31 361.078 118.362 360.859 118.43C360.641 118.497 360.451 118.586 360.289 118.695C360.128 118.805 360.003 118.938 359.914 119.094C359.826 119.245 359.781 119.424 359.781 119.633C359.781 119.872 359.818 120.083 359.891 120.266C359.969 120.448 360.073 120.602 360.203 120.727C360.339 120.852 360.5 120.945 360.688 121.008C360.875 121.07 361.081 121.102 361.305 121.102C361.445 121.102 361.607 121.086 361.789 121.055C361.971 121.018 362.159 120.966 362.352 120.898C362.544 120.831 362.732 120.745 362.914 120.641C363.102 120.531 363.268 120.401 363.414 120.25C363.56 120.099 363.677 119.927 363.766 119.734C363.854 119.542 363.898 119.326 363.898 119.086V117.742ZM374.211 119.055C374.19 119.258 374.148 119.479 374.086 119.719C374.029 119.958 373.943 120.198 373.828 120.438C373.714 120.672 373.565 120.898 373.383 121.117C373.206 121.336 372.987 121.531 372.727 121.703C372.471 121.87 372.169 122.003 371.82 122.102C371.471 122.206 371.073 122.258 370.625 122.258C370.38 122.258 370.122 122.227 369.852 122.164C369.581 122.107 369.315 122.008 369.055 121.867C368.799 121.727 368.555 121.547 368.32 121.328C368.091 121.104 367.888 120.828 367.711 120.5C367.539 120.172 367.401 119.792 367.297 119.359C367.193 118.922 367.141 118.422 367.141 117.859C367.141 117.167 367.24 116.544 367.438 115.992C367.635 115.435 367.898 114.964 368.227 114.578C368.56 114.193 368.945 113.896 369.383 113.688C369.826 113.479 370.289 113.375 370.773 113.375C371.211 113.375 371.596 113.422 371.93 113.516C372.268 113.609 372.562 113.734 372.812 113.891C373.062 114.047 373.273 114.229 373.445 114.438C373.617 114.641 373.755 114.857 373.859 115.086C373.969 115.31 374.049 115.539 374.102 115.773C374.159 116.008 374.195 116.232 374.211 116.445H372.867C372.794 115.878 372.596 115.432 372.273 115.109C371.956 114.786 371.508 114.625 370.93 114.625C370.534 114.625 370.188 114.706 369.891 114.867C369.599 115.029 369.354 115.255 369.156 115.547C368.964 115.833 368.818 116.182 368.719 116.594C368.625 117 368.578 117.448 368.578 117.938C368.578 118.49 368.63 118.966 368.734 119.367C368.839 119.763 368.987 120.091 369.18 120.352C369.372 120.607 369.607 120.797 369.883 120.922C370.164 121.042 370.482 121.102 370.836 121.102C371.086 121.102 371.323 121.057 371.547 120.969C371.771 120.875 371.971 120.742 372.148 120.57C372.326 120.393 372.477 120.177 372.602 119.922C372.727 119.667 372.815 119.378 372.867 119.055H374.211ZM382.211 119.055C382.19 119.258 382.148 119.479 382.086 119.719C382.029 119.958 381.943 120.198 381.828 120.438C381.714 120.672 381.565 120.898 381.383 121.117C381.206 121.336 380.987 121.531 380.727 121.703C380.471 121.87 380.169 122.003 379.82 122.102C379.471 122.206 379.073 122.258 378.625 122.258C378.38 122.258 378.122 122.227 377.852 122.164C377.581 122.107 377.315 122.008 377.055 121.867C376.799 121.727 376.555 121.547 376.32 121.328C376.091 121.104 375.888 120.828 375.711 120.5C375.539 120.172 375.401 119.792 375.297 119.359C375.193 118.922 375.141 118.422 375.141 117.859C375.141 117.167 375.24 116.544 375.438 115.992C375.635 115.435 375.898 114.964 376.227 114.578C376.56 114.193 376.945 113.896 377.383 113.688C377.826 113.479 378.289 113.375 378.773 113.375C379.211 113.375 379.596 113.422 379.93 113.516C380.268 113.609 380.562 113.734 380.812 113.891C381.062 114.047 381.273 114.229 381.445 114.438C381.617 114.641 381.755 114.857 381.859 115.086C381.969 115.31 382.049 115.539 382.102 115.773C382.159 116.008 382.195 116.232 382.211 116.445H380.867C380.794 115.878 380.596 115.432 380.273 115.109C379.956 114.786 379.508 114.625 378.93 114.625C378.534 114.625 378.188 114.706 377.891 114.867C377.599 115.029 377.354 115.255 377.156 115.547C376.964 115.833 376.818 116.182 376.719 116.594C376.625 117 376.578 117.448 376.578 117.938C376.578 118.49 376.63 118.966 376.734 119.367C376.839 119.763 376.987 120.091 377.18 120.352C377.372 120.607 377.607 120.797 377.883 120.922C378.164 121.042 378.482 121.102 378.836 121.102C379.086 121.102 379.323 121.057 379.547 120.969C379.771 120.875 379.971 120.742 380.148 120.57C380.326 120.393 380.477 120.177 380.602 119.922C380.727 119.667 380.815 119.378 380.867 119.055H382.211ZM385.859 114.883H382.977V113.633H390.18V114.883H387.297V122H385.859V114.883ZM397.477 117.805C397.477 117.341 397.424 116.917 397.32 116.531C397.216 116.141 397.06 115.805 396.852 115.523C396.643 115.242 396.385 115.023 396.078 114.867C395.776 114.706 395.424 114.625 395.023 114.625C394.622 114.625 394.271 114.706 393.969 114.867C393.667 115.023 393.411 115.242 393.203 115.523C392.995 115.805 392.839 116.141 392.734 116.531C392.63 116.917 392.578 117.341 392.578 117.805C392.578 118.273 392.63 118.706 392.734 119.102C392.839 119.492 392.995 119.828 393.203 120.109C393.411 120.391 393.667 120.612 393.969 120.773C394.271 120.93 394.622 121.008 395.023 121.008C395.424 121.008 395.776 120.93 396.078 120.773C396.385 120.612 396.643 120.391 396.852 120.109C397.06 119.828 397.216 119.492 397.32 119.102C397.424 118.706 397.477 118.273 397.477 117.805ZM398.914 117.805C398.914 118.492 398.826 119.112 398.648 119.664C398.471 120.211 398.216 120.677 397.883 121.062C397.549 121.448 397.141 121.745 396.656 121.953C396.177 122.156 395.633 122.258 395.023 122.258C394.414 122.258 393.87 122.156 393.391 121.953C392.911 121.745 392.505 121.448 392.172 121.062C391.839 120.677 391.583 120.211 391.406 119.664C391.229 119.112 391.141 118.492 391.141 117.805C391.141 117.128 391.229 116.516 391.406 115.969C391.583 115.422 391.839 114.956 392.172 114.57C392.505 114.185 392.911 113.891 393.391 113.688C393.87 113.479 394.414 113.375 395.023 113.375C395.633 113.375 396.177 113.479 396.656 113.688C397.141 113.891 397.549 114.185 397.883 114.57C398.216 114.956 398.471 115.422 398.648 115.969C398.826 116.516 398.914 117.128 398.914 117.805ZM407.344 122H405.898V118.688H404.047C403.714 118.688 403.422 118.695 403.172 118.711C402.927 118.721 402.719 118.768 402.547 118.852C402.375 118.935 402.24 119.065 402.141 119.242C402.047 119.419 401.987 119.672 401.961 120L401.898 120.898C401.893 120.924 401.888 120.977 401.883 121.055C401.878 121.133 401.867 121.227 401.852 121.336C401.836 121.44 401.815 121.552 401.789 121.672C401.763 121.792 401.732 121.901 401.695 122H400.109C400.146 121.953 400.18 121.906 400.211 121.859C400.247 121.807 400.281 121.737 400.312 121.648C400.349 121.56 400.38 121.445 400.406 121.305C400.438 121.164 400.466 120.984 400.492 120.766L400.586 119.695C400.617 119.414 400.654 119.185 400.695 119.008C400.742 118.831 400.805 118.685 400.883 118.57C400.966 118.451 401.073 118.354 401.203 118.281C401.333 118.203 401.497 118.125 401.695 118.047C400.799 117.724 400.352 117.062 400.352 116.062C400.352 115.812 400.383 115.583 400.445 115.375C400.508 115.161 400.589 114.971 400.688 114.805C400.792 114.638 400.906 114.492 401.031 114.367C401.161 114.237 401.292 114.13 401.422 114.047C401.583 113.943 401.76 113.865 401.953 113.812C402.146 113.755 402.339 113.714 402.531 113.688C402.729 113.661 402.922 113.646 403.109 113.641C403.297 113.635 403.469 113.633 403.625 113.633H407.344V122ZM405.898 114.898H403.711C403.523 114.898 403.362 114.901 403.227 114.906C403.091 114.906 402.971 114.911 402.867 114.922C402.768 114.932 402.677 114.951 402.594 114.977C402.51 115.003 402.424 115.039 402.336 115.086C402.154 115.19 402.013 115.344 401.914 115.547C401.82 115.75 401.773 115.966 401.773 116.195C401.773 116.419 401.807 116.609 401.875 116.766C401.943 116.917 402.031 117.042 402.141 117.141C402.255 117.24 402.38 117.318 402.516 117.375C402.656 117.427 402.797 117.466 402.938 117.492C403.083 117.513 403.224 117.526 403.359 117.531C403.495 117.536 403.612 117.539 403.711 117.539H405.898V114.898ZM409.477 113.633H410.914V117.008H414.82V113.633H416.266V122H414.82V118.258H410.914V122H409.477V113.633ZM418.383 113.633H419.82V120.047H419.852L423.961 113.633H425.609V122H424.164V115.586H424.133L420.031 122H418.383V113.633ZM434.852 119.328C434.794 119.693 434.669 120.049 434.477 120.398C434.284 120.747 434.031 121.06 433.719 121.336C433.406 121.612 433.036 121.833 432.609 122C432.188 122.172 431.719 122.258 431.203 122.258C430.641 122.258 430.12 122.167 429.641 121.984C429.167 121.797 428.755 121.518 428.406 121.148C428.062 120.773 427.792 120.305 427.594 119.742C427.396 119.18 427.297 118.518 427.297 117.758C427.297 117.247 427.352 116.786 427.461 116.375C427.576 115.958 427.727 115.589 427.914 115.266C428.107 114.938 428.328 114.656 428.578 114.422C428.828 114.182 429.091 113.987 429.367 113.836C429.648 113.68 429.935 113.565 430.227 113.492C430.518 113.414 430.799 113.375 431.07 113.375C431.643 113.375 432.167 113.461 432.641 113.633C433.115 113.805 433.521 114.068 433.859 114.422C434.203 114.771 434.469 115.211 434.656 115.742C434.849 116.268 434.945 116.888 434.945 117.602V118.32H428.828C428.833 118.727 428.891 119.096 429 119.43C429.109 119.758 429.266 120.039 429.469 120.273C429.672 120.508 429.917 120.69 430.203 120.82C430.495 120.945 430.823 121.008 431.188 121.008C431.557 121.008 431.87 120.956 432.125 120.852C432.38 120.747 432.594 120.615 432.766 120.453C432.938 120.292 433.076 120.112 433.18 119.914C433.289 119.716 433.38 119.521 433.453 119.328H434.852ZM433.5 117.172C433.49 116.766 433.427 116.404 433.312 116.086C433.203 115.768 433.047 115.503 432.844 115.289C432.646 115.07 432.406 114.906 432.125 114.797C431.844 114.682 431.531 114.625 431.188 114.625C430.859 114.625 430.557 114.69 430.281 114.82C430.005 114.945 429.763 115.122 429.555 115.352C429.346 115.576 429.18 115.844 429.055 116.156C428.93 116.464 428.854 116.802 428.828 117.172H433.5Z" fill="black"/>
<line x1="436" y1="121.52" x2="540" y2="121.505" stroke="black" stroke-dasharray="1 1"/>
<path d="M549.242 111V112.227C548.883 112.576 548.404 113.182 547.805 114.047C547.211 114.911 546.685 115.844 546.227 116.844C545.773 117.818 545.43 118.706 545.195 119.508C545.044 120.023 544.849 120.854 544.609 122H543.055C543.409 119.865 544.19 117.74 545.398 115.625C546.112 114.385 546.862 113.315 547.648 112.414H541.461V111H549.242ZM554.734 122C554.786 121.036 554.984 120.198 555.328 119.484C555.677 118.771 556.354 118.122 557.359 117.539L558.859 116.672C559.531 116.281 560.003 115.948 560.273 115.672C560.701 115.24 560.914 114.745 560.914 114.188C560.914 113.536 560.719 113.021 560.328 112.641C559.938 112.255 559.417 112.062 558.766 112.062C557.802 112.062 557.135 112.427 556.766 113.156C556.568 113.547 556.458 114.089 556.438 114.781H555.008C555.023 113.807 555.203 113.013 555.547 112.398C556.156 111.315 557.232 110.773 558.773 110.773C560.055 110.773 560.99 111.12 561.578 111.812C562.172 112.505 562.469 113.276 562.469 114.125C562.469 115.021 562.154 115.786 561.523 116.422C561.159 116.792 560.505 117.24 559.562 117.766L558.492 118.359C557.982 118.641 557.581 118.909 557.289 119.164C556.768 119.617 556.44 120.12 556.305 120.672H562.414V122H554.734ZM567.297 122.305C565.974 122.305 565.013 121.943 564.414 121.219C563.82 120.49 563.523 119.604 563.523 118.562H564.992C565.055 119.286 565.19 119.812 565.398 120.141C565.763 120.729 566.422 121.023 567.375 121.023C568.115 121.023 568.708 120.826 569.156 120.43C569.604 120.034 569.828 119.523 569.828 118.898C569.828 118.128 569.591 117.589 569.117 117.281C568.648 116.974 567.995 116.82 567.156 116.82C567.062 116.82 566.966 116.823 566.867 116.828C566.773 116.828 566.677 116.831 566.578 116.836V115.594C566.724 115.609 566.846 115.62 566.945 115.625C567.044 115.63 567.151 115.633 567.266 115.633C567.792 115.633 568.224 115.549 568.562 115.383C569.156 115.091 569.453 114.57 569.453 113.82C569.453 113.263 569.255 112.833 568.859 112.531C568.464 112.229 568.003 112.078 567.477 112.078C566.539 112.078 565.891 112.391 565.531 113.016C565.333 113.359 565.221 113.849 565.195 114.484H563.805C563.805 113.651 563.971 112.943 564.305 112.359C564.878 111.318 565.885 110.797 567.328 110.797C568.469 110.797 569.352 111.052 569.977 111.562C570.602 112.068 570.914 112.802 570.914 113.766C570.914 114.453 570.729 115.01 570.359 115.438C570.13 115.703 569.833 115.911 569.469 116.062C570.057 116.224 570.516 116.536 570.844 117C571.177 117.458 571.344 118.021 571.344 118.688C571.344 119.755 570.992 120.625 570.289 121.297C569.586 121.969 568.589 122.305 567.297 122.305ZM574.023 119.148C574.117 119.951 574.49 120.505 575.141 120.812C575.474 120.969 575.859 121.047 576.297 121.047C577.13 121.047 577.747 120.781 578.148 120.25C578.549 119.719 578.75 119.13 578.75 118.484C578.75 117.703 578.51 117.099 578.031 116.672C577.557 116.245 576.987 116.031 576.32 116.031C575.836 116.031 575.419 116.125 575.07 116.312C574.727 116.5 574.432 116.76 574.188 117.094L572.969 117.023L573.82 111H579.633V112.359H574.875L574.398 115.469C574.659 115.271 574.906 115.122 575.141 115.023C575.557 114.852 576.039 114.766 576.586 114.766C577.612 114.766 578.482 115.096 579.195 115.758C579.909 116.419 580.266 117.258 580.266 118.273C580.266 119.331 579.938 120.263 579.281 121.07C578.63 121.878 577.589 122.281 576.156 122.281C575.245 122.281 574.438 122.026 573.734 121.516C573.036 121 572.646 120.211 572.562 119.148H574.023ZM589.734 110.812C591.182 110.812 592.229 111.409 592.875 112.602C593.375 113.523 593.625 114.786 593.625 116.391C593.625 117.911 593.398 119.169 592.945 120.164C592.289 121.591 591.216 122.305 589.727 122.305C588.383 122.305 587.383 121.721 586.727 120.555C586.18 119.581 585.906 118.273 585.906 116.633C585.906 115.362 586.07 114.271 586.398 113.359C587.013 111.661 588.125 110.812 589.734 110.812ZM589.719 121.023C590.448 121.023 591.029 120.701 591.461 120.055C591.893 119.409 592.109 118.206 592.109 116.445C592.109 115.174 591.953 114.13 591.641 113.312C591.328 112.49 590.721 112.078 589.82 112.078C588.992 112.078 588.385 112.469 588 113.25C587.62 114.026 587.43 115.172 587.43 116.688C587.43 117.828 587.552 118.745 587.797 119.438C588.172 120.495 588.812 121.023 589.719 121.023ZM594.812 122C594.865 121.036 595.062 120.198 595.406 119.484C595.755 118.771 596.432 118.122 597.438 117.539L598.938 116.672C599.609 116.281 600.081 115.948 600.352 115.672C600.779 115.24 600.992 114.745 600.992 114.188C600.992 113.536 600.797 113.021 600.406 112.641C600.016 112.255 599.495 112.062 598.844 112.062C597.88 112.062 597.214 112.427 596.844 113.156C596.646 113.547 596.536 114.089 596.516 114.781H595.086C595.102 113.807 595.281 113.013 595.625 112.398C596.234 111.315 597.31 110.773 598.852 110.773C600.133 110.773 601.068 111.12 601.656 111.812C602.25 112.505 602.547 113.276 602.547 114.125C602.547 115.021 602.232 115.786 601.602 116.422C601.237 116.792 600.583 117.24 599.641 117.766L598.57 118.359C598.06 118.641 597.659 118.909 597.367 119.164C596.846 119.617 596.518 120.12 596.383 120.672H602.492V122H594.812ZM608.508 118.039V112.969L604.922 118.039H608.508ZM608.531 122V119.266H603.625V117.891L608.75 110.781H609.938V118.039H611.586V119.266H609.938V122H608.531ZM617.633 113.633H619.07V117.68L623.297 113.633H625.18L621.25 117.328L625.242 122H623.391L620.125 118.203L619.07 119.086V122H617.633V113.633ZM626.398 113.633H628.492L630.703 120.492H630.734L632.977 113.633H634.945V122H633.602V115.266H633.57L631.359 122H629.984L627.773 115.266H627.742V122H626.398V113.633Z" fill="black"/>
<path d="M352.859 147.891C353.672 147.891 354.258 147.719 354.617 147.375C354.977 147.031 355.156 146.531 355.156 145.875C355.156 145.219 354.977 144.719 354.617 144.375C354.258 144.031 353.672 143.859 352.859 143.859H349.719V147.891H352.859ZM348.188 142.516H353.016C353.646 142.516 354.19 142.596 354.648 142.758C355.112 142.919 355.495 143.148 355.797 143.445C356.099 143.737 356.323 144.089 356.469 144.5C356.62 144.911 356.695 145.37 356.695 145.875C356.695 146.38 356.62 146.839 356.469 147.25C356.323 147.661 356.099 148.016 355.797 148.312C355.495 148.604 355.112 148.831 354.648 148.992C354.19 149.154 353.646 149.234 353.016 149.234H349.719V154H348.188V142.516ZM358.711 148.141C358.727 147.63 358.823 147.201 359 146.852C359.177 146.497 359.417 146.211 359.719 145.992C360.021 145.773 360.378 145.617 360.789 145.523C361.206 145.424 361.659 145.375 362.148 145.375C362.555 145.375 362.948 145.417 363.328 145.5C363.714 145.583 364.055 145.719 364.352 145.906C364.648 146.089 364.885 146.328 365.062 146.625C365.245 146.917 365.336 147.273 365.336 147.695V152.562C365.336 152.698 365.372 152.815 365.445 152.914C365.518 153.008 365.635 153.055 365.797 153.055C365.87 153.055 365.945 153.049 366.023 153.039C366.102 153.023 366.182 153.008 366.266 152.992V153.984C366.146 154.016 366.026 154.044 365.906 154.07C365.792 154.096 365.654 154.109 365.492 154.109C365.242 154.109 365.026 154.089 364.844 154.047C364.667 154.005 364.516 153.938 364.391 153.844C364.271 153.745 364.177 153.62 364.109 153.469C364.042 153.312 363.997 153.122 363.977 152.898C363.799 153.091 363.612 153.271 363.414 153.438C363.216 153.599 362.995 153.742 362.75 153.867C362.505 153.987 362.232 154.081 361.93 154.148C361.628 154.221 361.286 154.258 360.906 154.258C360.583 154.258 360.268 154.206 359.961 154.102C359.659 153.997 359.385 153.844 359.141 153.641C358.901 153.438 358.708 153.188 358.562 152.891C358.417 152.589 358.344 152.24 358.344 151.844C358.344 151.411 358.417 151.039 358.562 150.727C358.708 150.409 358.898 150.146 359.133 149.938C359.367 149.724 359.635 149.56 359.938 149.445C360.24 149.331 360.547 149.255 360.859 149.219L363.211 148.93C363.435 148.904 363.609 148.818 363.734 148.672C363.865 148.521 363.93 148.281 363.93 147.953C363.93 147.448 363.763 147.086 363.43 146.867C363.102 146.643 362.628 146.531 362.008 146.531C361.372 146.531 360.898 146.667 360.586 146.938C360.273 147.203 360.096 147.604 360.055 148.141H358.711ZM363.898 149.742C363.784 149.826 363.641 149.896 363.469 149.953C363.302 150.005 363.117 150.049 362.914 150.086C362.711 150.122 362.495 150.156 362.266 150.188C362.036 150.214 361.807 150.242 361.578 150.273C361.318 150.31 361.078 150.362 360.859 150.43C360.641 150.497 360.451 150.586 360.289 150.695C360.128 150.805 360.003 150.938 359.914 151.094C359.826 151.245 359.781 151.424 359.781 151.633C359.781 151.872 359.818 152.083 359.891 152.266C359.969 152.448 360.073 152.602 360.203 152.727C360.339 152.852 360.5 152.945 360.688 153.008C360.875 153.07 361.081 153.102 361.305 153.102C361.445 153.102 361.607 153.086 361.789 153.055C361.971 153.018 362.159 152.966 362.352 152.898C362.544 152.831 362.732 152.745 362.914 152.641C363.102 152.531 363.268 152.401 363.414 152.25C363.56 152.099 363.677 151.927 363.766 151.734C363.854 151.542 363.898 151.326 363.898 151.086V149.742ZM369.797 149.164H370.523C370.716 149.164 370.917 149.141 371.125 149.094C371.333 149.047 371.523 148.974 371.695 148.875C371.867 148.771 372.008 148.638 372.117 148.477C372.232 148.315 372.289 148.12 372.289 147.891C372.289 147.724 372.253 147.565 372.18 147.414C372.112 147.258 372.008 147.122 371.867 147.008C371.732 146.888 371.56 146.794 371.352 146.727C371.143 146.659 370.901 146.625 370.625 146.625C370.479 146.625 370.307 146.646 370.109 146.688C369.911 146.729 369.716 146.807 369.523 146.922C369.336 147.031 369.167 147.19 369.016 147.398C368.87 147.602 368.776 147.867 368.734 148.195H367.391C367.427 147.82 367.503 147.492 367.617 147.211C367.732 146.924 367.875 146.677 368.047 146.469C368.219 146.26 368.411 146.086 368.625 145.945C368.844 145.805 369.068 145.693 369.297 145.609C369.531 145.526 369.766 145.466 370 145.43C370.234 145.393 370.458 145.375 370.672 145.375C371.047 145.375 371.417 145.424 371.781 145.523C372.146 145.617 372.471 145.763 372.758 145.961C373.049 146.154 373.284 146.398 373.461 146.695C373.638 146.992 373.727 147.339 373.727 147.734C373.727 147.99 373.69 148.216 373.617 148.414C373.544 148.607 373.448 148.776 373.328 148.922C373.214 149.068 373.083 149.193 372.938 149.297C372.792 149.396 372.648 149.479 372.508 149.547V149.586C372.654 149.612 372.815 149.667 372.992 149.75C373.169 149.828 373.333 149.943 373.484 150.094C373.635 150.24 373.76 150.43 373.859 150.664C373.964 150.893 374.016 151.174 374.016 151.508C374.016 151.977 373.914 152.383 373.711 152.727C373.513 153.07 373.253 153.357 372.93 153.586C372.607 153.81 372.242 153.977 371.836 154.086C371.43 154.201 371.021 154.258 370.609 154.258C370.078 154.258 369.596 154.19 369.164 154.055C368.737 153.919 368.367 153.727 368.055 153.477C367.742 153.227 367.492 152.927 367.305 152.578C367.122 152.229 367.013 151.844 366.977 151.422H368.422C368.458 151.729 368.547 151.984 368.688 152.188C368.828 152.391 368.997 152.552 369.195 152.672C369.393 152.792 369.612 152.878 369.852 152.93C370.096 152.982 370.344 153.008 370.594 153.008C371.255 153.008 371.75 152.875 372.078 152.609C372.411 152.344 372.578 151.987 372.578 151.539C372.578 151.346 372.547 151.174 372.484 151.023C372.427 150.872 372.328 150.745 372.188 150.641C372.047 150.531 371.859 150.451 371.625 150.398C371.396 150.341 371.109 150.312 370.766 150.312C370.698 150.312 370.62 150.315 370.531 150.32C370.448 150.32 370.362 150.323 370.273 150.328C370.19 150.333 370.107 150.341 370.023 150.352C369.94 150.357 369.865 150.362 369.797 150.367V149.164ZM375.633 145.633H377.727L379.938 152.492H379.969L382.211 145.633H384.18V154H382.836V147.266H382.805L380.594 154H379.219L377.008 147.266H376.977V154H375.633V145.633ZM393.414 151.328C393.357 151.693 393.232 152.049 393.039 152.398C392.846 152.747 392.594 153.06 392.281 153.336C391.969 153.612 391.599 153.833 391.172 154C390.75 154.172 390.281 154.258 389.766 154.258C389.203 154.258 388.682 154.167 388.203 153.984C387.729 153.797 387.318 153.518 386.969 153.148C386.625 152.773 386.354 152.305 386.156 151.742C385.958 151.18 385.859 150.518 385.859 149.758C385.859 149.247 385.914 148.786 386.023 148.375C386.138 147.958 386.289 147.589 386.477 147.266C386.669 146.938 386.891 146.656 387.141 146.422C387.391 146.182 387.654 145.987 387.93 145.836C388.211 145.68 388.497 145.565 388.789 145.492C389.081 145.414 389.362 145.375 389.633 145.375C390.206 145.375 390.729 145.461 391.203 145.633C391.677 145.805 392.083 146.068 392.422 146.422C392.766 146.771 393.031 147.211 393.219 147.742C393.411 148.268 393.508 148.888 393.508 149.602V150.32H387.391C387.396 150.727 387.453 151.096 387.562 151.43C387.672 151.758 387.828 152.039 388.031 152.273C388.234 152.508 388.479 152.69 388.766 152.82C389.057 152.945 389.385 153.008 389.75 153.008C390.12 153.008 390.432 152.956 390.688 152.852C390.943 152.747 391.156 152.615 391.328 152.453C391.5 152.292 391.638 152.112 391.742 151.914C391.852 151.716 391.943 151.521 392.016 151.328H393.414ZM392.062 149.172C392.052 148.766 391.99 148.404 391.875 148.086C391.766 147.768 391.609 147.503 391.406 147.289C391.208 147.07 390.969 146.906 390.688 146.797C390.406 146.682 390.094 146.625 389.75 146.625C389.422 146.625 389.12 146.69 388.844 146.82C388.568 146.945 388.326 147.122 388.117 147.352C387.909 147.576 387.742 147.844 387.617 148.156C387.492 148.464 387.417 148.802 387.391 149.172H392.062ZM395.117 145.633H396.555V146.781H396.586C396.68 146.589 396.797 146.406 396.938 146.234C397.083 146.062 397.255 145.914 397.453 145.789C397.656 145.659 397.888 145.557 398.148 145.484C398.414 145.411 398.716 145.375 399.055 145.375C399.503 145.375 399.932 145.461 400.344 145.633C400.755 145.805 401.12 146.062 401.438 146.406C401.755 146.75 402.008 147.182 402.195 147.703C402.383 148.219 402.477 148.82 402.477 149.508C402.477 150.367 402.388 151.099 402.211 151.703C402.039 152.302 401.792 152.792 401.469 153.172C401.151 153.552 400.766 153.828 400.312 154C399.859 154.172 399.354 154.258 398.797 154.258C398.521 154.258 398.263 154.221 398.023 154.148C397.784 154.076 397.568 153.982 397.375 153.867C397.188 153.747 397.026 153.617 396.891 153.477C396.755 153.331 396.654 153.19 396.586 153.055H396.555V157.297H395.117V145.633ZM396.523 149.859C396.523 150.312 396.568 150.732 396.656 151.117C396.745 151.497 396.88 151.828 397.062 152.109C397.25 152.391 397.482 152.612 397.758 152.773C398.039 152.93 398.37 153.008 398.75 153.008C399.146 153.008 399.487 152.93 399.773 152.773C400.065 152.612 400.305 152.391 400.492 152.109C400.68 151.828 400.818 151.497 400.906 151.117C400.995 150.732 401.039 150.312 401.039 149.859C401.039 149.385 400.995 148.951 400.906 148.555C400.818 148.159 400.68 147.818 400.492 147.531C400.305 147.245 400.065 147.023 399.773 146.867C399.487 146.706 399.146 146.625 398.75 146.625C398.37 146.625 398.039 146.706 397.758 146.867C397.482 147.023 397.25 147.245 397.062 147.531C396.88 147.818 396.745 148.159 396.656 148.555C396.568 148.951 396.523 149.385 396.523 149.859Z" fill="black"/>
<line x1="404" y1="153.52" x2="603" y2="153.492" stroke="black" stroke-dasharray="1 1"/>
<path d="M607.43 147.5C608.049 147.5 608.534 147.328 608.883 146.984C609.232 146.635 609.406 146.221 609.406 145.742C609.406 145.326 609.24 144.943 608.906 144.594C608.573 144.245 608.065 144.07 607.383 144.07C606.706 144.07 606.216 144.245 605.914 144.594C605.612 144.943 605.461 145.352 605.461 145.82C605.461 146.346 605.656 146.758 606.047 147.055C606.438 147.352 606.898 147.5 607.43 147.5ZM607.516 153.039C608.167 153.039 608.706 152.865 609.133 152.516C609.565 152.161 609.781 151.635 609.781 150.938C609.781 150.214 609.56 149.664 609.117 149.289C608.674 148.914 608.107 148.727 607.414 148.727C606.742 148.727 606.193 148.919 605.766 149.305C605.344 149.685 605.133 150.214 605.133 150.891C605.133 151.474 605.326 151.979 605.711 152.406C606.102 152.828 606.703 153.039 607.516 153.039ZM605.516 148.039C605.125 147.872 604.82 147.677 604.602 147.453C604.19 147.036 603.984 146.495 603.984 145.828C603.984 144.995 604.286 144.279 604.891 143.68C605.495 143.081 606.352 142.781 607.461 142.781C608.534 142.781 609.375 143.065 609.984 143.633C610.594 144.195 610.898 144.854 610.898 145.609C610.898 146.307 610.721 146.872 610.367 147.305C610.169 147.549 609.862 147.789 609.445 148.023C609.909 148.237 610.273 148.482 610.539 148.758C611.034 149.279 611.281 149.956 611.281 150.789C611.281 151.773 610.951 152.609 610.289 153.297C609.628 153.979 608.693 154.32 607.484 154.32C606.396 154.32 605.474 154.026 604.719 153.438C603.969 152.844 603.594 151.984 603.594 150.859C603.594 150.198 603.755 149.628 604.078 149.148C604.401 148.664 604.88 148.294 605.516 148.039ZM613.961 151.148C614.055 151.951 614.427 152.505 615.078 152.812C615.411 152.969 615.797 153.047 616.234 153.047C617.068 153.047 617.685 152.781 618.086 152.25C618.487 151.719 618.688 151.13 618.688 150.484C618.688 149.703 618.448 149.099 617.969 148.672C617.495 148.245 616.924 148.031 616.258 148.031C615.773 148.031 615.357 148.125 615.008 148.312C614.664 148.5 614.37 148.76 614.125 149.094L612.906 149.023L613.758 143H619.57V144.359H614.812L614.336 147.469C614.596 147.271 614.844 147.122 615.078 147.023C615.495 146.852 615.977 146.766 616.523 146.766C617.549 146.766 618.419 147.096 619.133 147.758C619.846 148.419 620.203 149.258 620.203 150.273C620.203 151.331 619.875 152.263 619.219 153.07C618.568 153.878 617.526 154.281 616.094 154.281C615.182 154.281 614.375 154.026 613.672 153.516C612.974 153 612.583 152.211 612.5 151.148H613.961ZM626.398 145.633H628.492L630.703 152.492H630.734L632.977 145.633H634.945V154H633.602V147.266H633.57L631.359 154H629.984L627.773 147.266H627.742V154H626.398V145.633Z" fill="black"/>
<path d="M798.055 52.2578C798.055 52.7526 798.005 53.2474 797.906 53.7422C797.807 54.2318 797.656 54.7005 797.453 55.1484C797.25 55.5911 796.995 56.0052 796.688 56.3906C796.385 56.7708 796.026 57.1042 795.609 57.3906C795.193 57.6719 794.721 57.8906 794.195 58.0469C793.674 58.2083 793.096 58.2891 792.461 58.2891C791.826 58.2891 791.245 58.2083 790.719 58.0469C790.193 57.8906 789.721 57.6719 789.305 57.3906C788.893 57.1042 788.534 56.7708 788.227 56.3906C787.919 56.0052 787.664 55.5911 787.461 55.1484C787.258 54.7005 787.107 54.2318 787.008 53.7422C786.909 53.2474 786.859 52.7526 786.859 52.2578C786.859 51.3672 786.984 50.5521 787.234 49.8125C787.49 49.0729 787.857 48.4375 788.336 47.9062C788.815 47.375 789.401 46.9635 790.094 46.6719C790.786 46.375 791.576 46.2266 792.461 46.2266C793.341 46.2266 794.128 46.375 794.82 46.6719C795.518 46.9635 796.104 47.375 796.578 47.9062C797.057 48.4375 797.422 49.0729 797.672 49.8125C797.927 50.5521 798.055 51.3672 798.055 52.2578ZM796.523 52.2578C796.523 51.5755 796.432 50.9479 796.25 50.375C796.068 49.7969 795.802 49.3021 795.453 48.8906C795.109 48.474 794.685 48.151 794.18 47.9219C793.674 47.6875 793.102 47.5703 792.461 47.5703C791.815 47.5703 791.24 47.6875 790.734 47.9219C790.229 48.151 789.802 48.474 789.453 48.8906C789.109 49.3021 788.846 49.7969 788.664 50.375C788.482 50.9479 788.391 51.5755 788.391 52.2578C788.391 52.9557 788.474 53.5938 788.641 54.1719C788.807 54.7448 789.06 55.237 789.398 55.6484C789.737 56.0599 790.159 56.3802 790.664 56.6094C791.174 56.8333 791.773 56.9453 792.461 56.9453C793.143 56.9453 793.74 56.8333 794.25 56.6094C794.76 56.3802 795.182 56.0599 795.516 55.6484C795.854 55.237 796.107 54.7448 796.273 54.1719C796.44 53.5938 796.523 52.9557 796.523 52.2578ZM799.742 49.6328H801.18V56.75H805.086V49.6328H806.531V56.75H807.562V60.0469H806.219V58H799.742V49.6328ZM816.008 55.3281C815.951 55.6927 815.826 56.0495 815.633 56.3984C815.44 56.7474 815.188 57.0599 814.875 57.3359C814.562 57.612 814.193 57.8333 813.766 58C813.344 58.1719 812.875 58.2578 812.359 58.2578C811.797 58.2578 811.276 58.1667 810.797 57.9844C810.323 57.7969 809.911 57.5182 809.562 57.1484C809.219 56.7734 808.948 56.3047 808.75 55.7422C808.552 55.1797 808.453 54.5182 808.453 53.7578C808.453 53.2474 808.508 52.7865 808.617 52.375C808.732 51.9583 808.883 51.5885 809.07 51.2656C809.263 50.9375 809.484 50.6562 809.734 50.4219C809.984 50.1823 810.247 49.987 810.523 49.8359C810.805 49.6797 811.091 49.5651 811.383 49.4922C811.674 49.4141 811.956 49.375 812.227 49.375C812.799 49.375 813.323 49.4609 813.797 49.6328C814.271 49.8047 814.677 50.0677 815.016 50.4219C815.359 50.7708 815.625 51.2109 815.812 51.7422C816.005 52.2682 816.102 52.888 816.102 53.6016V54.3203H809.984C809.99 54.7266 810.047 55.0964 810.156 55.4297C810.266 55.7578 810.422 56.0391 810.625 56.2734C810.828 56.5078 811.073 56.6901 811.359 56.8203C811.651 56.9453 811.979 57.0078 812.344 57.0078C812.714 57.0078 813.026 56.9557 813.281 56.8516C813.536 56.7474 813.75 56.6146 813.922 56.4531C814.094 56.2917 814.232 56.112 814.336 55.9141C814.445 55.7161 814.536 55.5208 814.609 55.3281H816.008ZM814.656 53.1719C814.646 52.7656 814.583 52.4036 814.469 52.0859C814.359 51.7682 814.203 51.5026 814 51.2891C813.802 51.0703 813.562 50.9062 813.281 50.7969C813 50.6823 812.688 50.625 812.344 50.625C812.016 50.625 811.714 50.6901 811.438 50.8203C811.161 50.9453 810.919 51.1224 810.711 51.3516C810.503 51.5755 810.336 51.8438 810.211 52.1562C810.086 52.4635 810.01 52.8021 809.984 53.1719H814.656ZM817.789 49.6328H819.227V53.0078H823.133V49.6328H824.578V58H823.133V54.2578H819.227V58H817.789V49.6328ZM826.695 49.6328H828.133V53.6797L832.359 49.6328H834.242L830.312 53.3281L834.305 58H832.453L829.188 54.2031L828.133 55.0859V58H826.695V49.6328ZM835.445 52.1406C835.461 51.6302 835.557 51.2005 835.734 50.8516C835.911 50.4974 836.151 50.2109 836.453 49.9922C836.755 49.7734 837.112 49.6172 837.523 49.5234C837.94 49.4245 838.393 49.375 838.883 49.375C839.289 49.375 839.682 49.4167 840.062 49.5C840.448 49.5833 840.789 49.7188 841.086 49.9062C841.383 50.0885 841.62 50.3281 841.797 50.625C841.979 50.9167 842.07 51.2734 842.07 51.6953V56.5625C842.07 56.6979 842.107 56.8151 842.18 56.9141C842.253 57.0078 842.37 57.0547 842.531 57.0547C842.604 57.0547 842.68 57.0495 842.758 57.0391C842.836 57.0234 842.917 57.0078 843 56.9922V57.9844C842.88 58.0156 842.76 58.0443 842.641 58.0703C842.526 58.0964 842.388 58.1094 842.227 58.1094C841.977 58.1094 841.76 58.0885 841.578 58.0469C841.401 58.0052 841.25 57.9375 841.125 57.8438C841.005 57.7448 840.911 57.6198 840.844 57.4688C840.776 57.3125 840.732 57.1224 840.711 56.8984C840.534 57.0911 840.346 57.2708 840.148 57.4375C839.951 57.599 839.729 57.7422 839.484 57.8672C839.24 57.987 838.966 58.0807 838.664 58.1484C838.362 58.2214 838.021 58.2578 837.641 58.2578C837.318 58.2578 837.003 58.2057 836.695 58.1016C836.393 57.9974 836.12 57.8438 835.875 57.6406C835.635 57.4375 835.443 57.1875 835.297 56.8906C835.151 56.5885 835.078 56.2396 835.078 55.8438C835.078 55.4115 835.151 55.0391 835.297 54.7266C835.443 54.4089 835.633 54.1458 835.867 53.9375C836.102 53.724 836.37 53.5599 836.672 53.4453C836.974 53.3307 837.281 53.2552 837.594 53.2188L839.945 52.9297C840.169 52.9036 840.344 52.8177 840.469 52.6719C840.599 52.5208 840.664 52.2812 840.664 51.9531C840.664 51.4479 840.497 51.0859 840.164 50.8672C839.836 50.6432 839.362 50.5312 838.742 50.5312C838.107 50.5312 837.633 50.6667 837.32 50.9375C837.008 51.2031 836.831 51.6042 836.789 52.1406H835.445ZM840.633 53.7422C840.518 53.8255 840.375 53.8958 840.203 53.9531C840.036 54.0052 839.852 54.0495 839.648 54.0859C839.445 54.1224 839.229 54.1562 839 54.1875C838.771 54.2135 838.542 54.2422 838.312 54.2734C838.052 54.3099 837.812 54.362 837.594 54.4297C837.375 54.4974 837.185 54.5859 837.023 54.6953C836.862 54.8047 836.737 54.9375 836.648 55.0938C836.56 55.2448 836.516 55.4245 836.516 55.6328C836.516 55.8724 836.552 56.0833 836.625 56.2656C836.703 56.4479 836.807 56.6016 836.938 56.7266C837.073 56.8516 837.234 56.9453 837.422 57.0078C837.609 57.0703 837.815 57.1016 838.039 57.1016C838.18 57.1016 838.341 57.0859 838.523 57.0547C838.706 57.0182 838.893 56.9661 839.086 56.8984C839.279 56.8307 839.466 56.7448 839.648 56.6406C839.836 56.5312 840.003 56.401 840.148 56.25C840.294 56.099 840.411 55.9271 840.5 55.7344C840.589 55.5417 840.633 55.3255 840.633 55.0859V53.7422ZM845.086 49.7422H846.719V51.4453H845.086V49.7422ZM845.086 56.2969H846.719V58H845.086V56.2969ZM778.445 73.4844H780.656V76.5625H783.906V73.4844H786.109V82H783.906V78.3516H780.656V82H778.445V73.4844ZM789.812 78.4297C789.812 78.5078 789.82 78.612 789.836 78.7422C789.852 78.8724 789.883 79.013 789.93 79.1641C789.977 79.3151 790.044 79.4688 790.133 79.625C790.221 79.776 790.339 79.9141 790.484 80.0391C790.635 80.1641 790.818 80.2656 791.031 80.3438C791.25 80.4219 791.51 80.4609 791.812 80.4609C791.969 80.4609 792.122 80.4401 792.273 80.3984C792.43 80.3516 792.573 80.2865 792.703 80.2031C792.833 80.1146 792.945 80.0104 793.039 79.8906C793.138 79.7656 793.208 79.625 793.25 79.4688H795.539C795.539 79.625 795.505 79.8047 795.438 80.0078C795.37 80.2057 795.266 80.4089 795.125 80.6172C794.99 80.8203 794.818 81.0208 794.609 81.2188C794.401 81.4167 794.154 81.5938 793.867 81.75C793.581 81.901 793.255 82.0234 792.891 82.1172C792.531 82.2109 792.13 82.2578 791.688 82.2578C791.12 82.2578 790.586 82.1719 790.086 82C789.591 81.8333 789.156 81.5677 788.781 81.2031C788.411 80.8333 788.12 80.3568 787.906 79.7734C787.693 79.1901 787.586 78.4818 787.586 77.6484C787.586 77.0703 787.661 76.5156 787.812 75.9844C787.969 75.4479 788.208 74.9766 788.531 74.5703C788.859 74.1641 789.276 73.8411 789.781 73.6016C790.292 73.3568 790.904 73.2344 791.617 73.2344C792.372 73.2344 793.008 73.3594 793.523 73.6094C794.039 73.8542 794.453 74.2031 794.766 74.6562C795.083 75.1094 795.31 75.6562 795.445 76.2969C795.581 76.9375 795.648 77.6484 795.648 78.4297H789.812ZM793.352 76.9609C793.352 76.5859 793.294 76.2734 793.18 76.0234C793.07 75.7734 792.93 75.5755 792.758 75.4297C792.591 75.2786 792.406 75.1745 792.203 75.1172C792 75.0547 791.805 75.0234 791.617 75.0234C791.435 75.0234 791.242 75.0547 791.039 75.1172C790.836 75.1745 790.648 75.2786 790.477 75.4297C790.31 75.5755 790.169 75.7734 790.055 76.0234C789.945 76.2734 789.891 76.5859 789.891 76.9609H793.352ZM801.078 77.7422C801.078 77.0859 801.177 76.4818 801.375 75.9297C801.578 75.3776 801.867 74.9036 802.242 74.5078C802.622 74.1068 803.081 73.7943 803.617 73.5703C804.154 73.3464 804.758 73.2344 805.43 73.2344C806.112 73.2344 806.721 73.3464 807.258 73.5703C807.799 73.7943 808.255 74.1068 808.625 74.5078C809 74.9036 809.286 75.3776 809.484 75.9297C809.682 76.4818 809.781 77.0859 809.781 77.7422C809.781 78.3984 809.682 79.0026 809.484 79.5547C809.286 80.1068 809 80.5833 808.625 80.9844C808.255 81.3854 807.799 81.6979 807.258 81.9219C806.721 82.1458 806.112 82.2578 805.43 82.2578C804.758 82.2578 804.154 82.1458 803.617 81.9219C803.081 81.6979 802.622 81.3854 802.242 80.9844C801.867 80.5833 801.578 80.1068 801.375 79.5547C801.177 79.0026 801.078 78.3984 801.078 77.7422ZM803.383 77.7422C803.383 78.0651 803.417 78.3854 803.484 78.7031C803.557 79.0156 803.674 79.2969 803.836 79.5469C803.997 79.7917 804.208 79.9896 804.469 80.1406C804.729 80.2917 805.049 80.3672 805.43 80.3672C805.826 80.3672 806.154 80.2943 806.414 80.1484C806.68 79.9974 806.891 79.8021 807.047 79.5625C807.203 79.3177 807.312 79.0391 807.375 78.7266C807.443 78.4089 807.477 78.0807 807.477 77.7422C807.477 77.4089 807.443 77.0833 807.375 76.7656C807.312 76.4479 807.203 76.1693 807.047 75.9297C806.891 75.6849 806.68 75.4896 806.414 75.3438C806.154 75.1927 805.826 75.1172 805.43 75.1172C805.049 75.1172 804.729 75.1927 804.469 75.3438C804.208 75.4948 803.997 75.6953 803.836 75.9453C803.674 76.1901 803.557 76.4714 803.484 76.7891C803.417 77.1016 803.383 77.4193 803.383 77.7422ZM811.383 73.4844H819.047V82H816.844V75.2812H813.594V82H811.383V73.4844ZM828.047 80.3203C828.047 80.5755 828.06 80.7865 828.086 80.9531C828.117 81.1146 828.156 81.2448 828.203 81.3438C828.25 81.4375 828.302 81.5078 828.359 81.5547C828.422 81.5964 828.487 81.6276 828.555 81.6484V82H826.109C826.068 81.901 826.021 81.7708 825.969 81.6094C825.922 81.4427 825.898 81.2422 825.898 81.0078C825.727 81.1849 825.557 81.349 825.391 81.5C825.229 81.651 825.047 81.7839 824.844 81.8984C824.641 82.0078 824.406 82.0938 824.141 82.1562C823.875 82.224 823.555 82.2578 823.18 82.2578C822.799 82.2578 822.448 82.2005 822.125 82.0859C821.807 81.9766 821.531 81.8125 821.297 81.5938C821.062 81.375 820.88 81.1016 820.75 80.7734C820.62 80.4453 820.555 80.0651 820.555 79.6328C820.555 79.2839 820.609 78.9609 820.719 78.6641C820.828 78.362 820.982 78.099 821.18 77.875C821.383 77.6458 821.628 77.4583 821.914 77.3125C822.206 77.1615 822.531 77.0599 822.891 77.0078L825.055 76.6875C825.133 76.6771 825.216 76.6615 825.305 76.6406C825.398 76.6198 825.484 76.5859 825.562 76.5391C825.641 76.487 825.706 76.4193 825.758 76.3359C825.81 76.2474 825.836 76.1302 825.836 75.9844C825.836 75.8438 825.812 75.7161 825.766 75.6016C825.724 75.4818 825.651 75.3802 825.547 75.2969C825.443 75.2083 825.302 75.1406 825.125 75.0938C824.953 75.0469 824.737 75.0234 824.477 75.0234C824.18 75.0234 823.94 75.0547 823.758 75.1172C823.581 75.1745 823.44 75.2578 823.336 75.3672C823.232 75.4714 823.156 75.5964 823.109 75.7422C823.062 75.8828 823.029 76.0339 823.008 76.1953H820.797C820.797 76.0911 820.812 75.9479 820.844 75.7656C820.88 75.5781 820.943 75.375 821.031 75.1562C821.125 74.9375 821.253 74.7161 821.414 74.4922C821.581 74.2682 821.797 74.0651 822.062 73.8828C822.333 73.6953 822.661 73.5417 823.047 73.4219C823.432 73.3021 823.893 73.2396 824.43 73.2344C825.19 73.2344 825.805 73.3125 826.273 73.4688C826.747 73.6198 827.115 73.8203 827.375 74.0703C827.641 74.3151 827.818 74.5911 827.906 74.8984C828 75.2005 828.047 75.5026 828.047 75.8047V80.3203ZM825.836 77.8438C825.701 77.9167 825.565 77.9844 825.43 78.0469C825.294 78.1042 825.115 78.1536 824.891 78.1953L824.305 78.3047C824.049 78.3516 823.826 78.4062 823.633 78.4688C823.44 78.5312 823.279 78.6146 823.148 78.7188C823.023 78.8177 822.927 78.9401 822.859 79.0859C822.797 79.2318 822.766 79.4141 822.766 79.6328C822.766 79.8151 822.794 79.974 822.852 80.1094C822.909 80.2396 822.987 80.349 823.086 80.4375C823.19 80.5208 823.31 80.5833 823.445 80.625C823.581 80.6667 823.727 80.6875 823.883 80.6875C823.966 80.6875 824.073 80.6797 824.203 80.6641C824.333 80.6432 824.471 80.6068 824.617 80.5547C824.763 80.5026 824.909 80.4323 825.055 80.3438C825.201 80.25 825.331 80.1302 825.445 79.9844C825.56 79.8385 825.654 79.6615 825.727 79.4531C825.799 79.2396 825.836 78.9896 825.836 78.7031V77.8438ZM835.062 76.4922C835.021 76.2682 834.964 76.0729 834.891 75.9062C834.818 75.7344 834.721 75.5911 834.602 75.4766C834.487 75.3568 834.344 75.2682 834.172 75.2109C834.005 75.1484 833.802 75.1172 833.562 75.1172C833.193 75.1172 832.896 75.2031 832.672 75.375C832.453 75.5469 832.284 75.763 832.164 76.0234C832.044 76.2839 831.964 76.5677 831.922 76.875C831.885 77.1823 831.867 77.4714 831.867 77.7422C831.867 78.0234 831.883 78.3203 831.914 78.6328C831.945 78.9401 832.018 79.224 832.133 79.4844C832.247 79.7396 832.417 79.9505 832.641 80.1172C832.865 80.2839 833.172 80.3672 833.562 80.3672C833.818 80.3672 834.039 80.3177 834.227 80.2188C834.414 80.1146 834.57 79.987 834.695 79.8359C834.82 79.6849 834.911 79.5234 834.969 79.3516C835.031 79.1797 835.062 79.0234 835.062 78.8828H837.367C837.367 79.0234 837.341 79.2057 837.289 79.4297C837.242 79.6536 837.161 79.8906 837.047 80.1406C836.932 80.3906 836.779 80.6432 836.586 80.8984C836.398 81.1484 836.161 81.375 835.875 81.5781C835.594 81.776 835.263 81.9375 834.883 82.0625C834.503 82.1927 834.062 82.2578 833.562 82.2578C832.911 82.2578 832.336 82.1589 831.836 81.9609C831.341 81.763 830.924 81.474 830.586 81.0938C830.253 80.7083 829.997 80.2344 829.82 79.6719C829.648 79.1094 829.562 78.4661 829.562 77.7422C829.562 77.0182 829.656 76.3776 829.844 75.8203C830.036 75.2578 830.307 74.7865 830.656 74.4062C831.005 74.0208 831.424 73.7292 831.914 73.5312C832.409 73.3333 832.958 73.2344 833.562 73.2344C833.823 73.2344 834.091 73.2552 834.367 73.2969C834.648 73.3385 834.924 73.4115 835.195 73.5156C835.466 73.6146 835.724 73.7448 835.969 73.9062C836.219 74.0677 836.44 74.2708 836.633 74.5156C836.831 74.7552 836.992 75.0391 837.117 75.3672C837.247 75.6901 837.331 76.0651 837.367 76.4922H835.062ZM840.562 78.4297C840.562 78.5078 840.57 78.612 840.586 78.7422C840.602 78.8724 840.633 79.013 840.68 79.1641C840.727 79.3151 840.794 79.4688 840.883 79.625C840.971 79.776 841.089 79.9141 841.234 80.0391C841.385 80.1641 841.568 80.2656 841.781 80.3438C842 80.4219 842.26 80.4609 842.562 80.4609C842.719 80.4609 842.872 80.4401 843.023 80.3984C843.18 80.3516 843.323 80.2865 843.453 80.2031C843.583 80.1146 843.695 80.0104 843.789 79.8906C843.888 79.7656 843.958 79.625 844 79.4688H846.289C846.289 79.625 846.255 79.8047 846.188 80.0078C846.12 80.2057 846.016 80.4089 845.875 80.6172C845.74 80.8203 845.568 81.0208 845.359 81.2188C845.151 81.4167 844.904 81.5938 844.617 81.75C844.331 81.901 844.005 82.0234 843.641 82.1172C843.281 82.2109 842.88 82.2578 842.438 82.2578C841.87 82.2578 841.336 82.1719 840.836 82C840.341 81.8333 839.906 81.5677 839.531 81.2031C839.161 80.8333 838.87 80.3568 838.656 79.7734C838.443 79.1901 838.336 78.4818 838.336 77.6484C838.336 77.0703 838.411 76.5156 838.562 75.9844C838.719 75.4479 838.958 74.9766 839.281 74.5703C839.609 74.1641 840.026 73.8411 840.531 73.6016C841.042 73.3568 841.654 73.2344 842.367 73.2344C843.122 73.2344 843.758 73.3594 844.273 73.6094C844.789 73.8542 845.203 74.2031 845.516 74.6562C845.833 75.1094 846.06 75.6562 846.195 76.2969C846.331 76.9375 846.398 77.6484 846.398 78.4297H840.562ZM844.102 76.9609C844.102 76.5859 844.044 76.2734 843.93 76.0234C843.82 75.7734 843.68 75.5755 843.508 75.4297C843.341 75.2786 843.156 75.1745 842.953 75.1172C842.75 75.0547 842.555 75.0234 842.367 75.0234C842.185 75.0234 841.992 75.0547 841.789 75.1172C841.586 75.1745 841.398 75.2786 841.227 75.4297C841.06 75.5755 840.919 75.7734 840.805 76.0234C840.695 76.2734 840.641 76.5859 840.641 76.9609H844.102ZM847.883 73.4844H850.094V76.5625H853.344V73.4844H855.547V82H853.344V78.3516H850.094V82H847.883V73.4844Z" fill="black"/>
<path d="M738 120C738 106.745 748.745 96 762 96H872C885.255 96 896 106.745 896 120C896 133.255 885.255 144 872 144H762C748.745 144 738 133.255 738 120Z" fill="#186DD6"/>
<path d="M755.188 114.516H756.719V119.25H762.828V114.516H764.367V126H762.828V120.594H756.719V126H755.188V114.516ZM766.602 120.141C766.617 119.63 766.714 119.201 766.891 118.852C767.068 118.497 767.307 118.211 767.609 117.992C767.911 117.773 768.268 117.617 768.68 117.523C769.096 117.424 769.549 117.375 770.039 117.375C770.445 117.375 770.839 117.417 771.219 117.5C771.604 117.583 771.945 117.719 772.242 117.906C772.539 118.089 772.776 118.328 772.953 118.625C773.135 118.917 773.227 119.273 773.227 119.695V124.562C773.227 124.698 773.263 124.815 773.336 124.914C773.409 125.008 773.526 125.055 773.688 125.055C773.76 125.055 773.836 125.049 773.914 125.039C773.992 125.023 774.073 125.008 774.156 124.992V125.984C774.036 126.016 773.917 126.044 773.797 126.07C773.682 126.096 773.544 126.109 773.383 126.109C773.133 126.109 772.917 126.089 772.734 126.047C772.557 126.005 772.406 125.938 772.281 125.844C772.161 125.745 772.068 125.62 772 125.469C771.932 125.312 771.888 125.122 771.867 124.898C771.69 125.091 771.503 125.271 771.305 125.438C771.107 125.599 770.885 125.742 770.641 125.867C770.396 125.987 770.122 126.081 769.82 126.148C769.518 126.221 769.177 126.258 768.797 126.258C768.474 126.258 768.159 126.206 767.852 126.102C767.549 125.997 767.276 125.844 767.031 125.641C766.792 125.438 766.599 125.188 766.453 124.891C766.307 124.589 766.234 124.24 766.234 123.844C766.234 123.411 766.307 123.039 766.453 122.727C766.599 122.409 766.789 122.146 767.023 121.938C767.258 121.724 767.526 121.56 767.828 121.445C768.13 121.331 768.438 121.255 768.75 121.219L771.102 120.93C771.326 120.904 771.5 120.818 771.625 120.672C771.755 120.521 771.82 120.281 771.82 119.953C771.82 119.448 771.654 119.086 771.32 118.867C770.992 118.643 770.518 118.531 769.898 118.531C769.263 118.531 768.789 118.667 768.477 118.938C768.164 119.203 767.987 119.604 767.945 120.141H766.602ZM771.789 121.742C771.674 121.826 771.531 121.896 771.359 121.953C771.193 122.005 771.008 122.049 770.805 122.086C770.602 122.122 770.385 122.156 770.156 122.188C769.927 122.214 769.698 122.242 769.469 122.273C769.208 122.31 768.969 122.362 768.75 122.43C768.531 122.497 768.341 122.586 768.18 122.695C768.018 122.805 767.893 122.938 767.805 123.094C767.716 123.245 767.672 123.424 767.672 123.633C767.672 123.872 767.708 124.083 767.781 124.266C767.859 124.448 767.964 124.602 768.094 124.727C768.229 124.852 768.391 124.945 768.578 125.008C768.766 125.07 768.971 125.102 769.195 125.102C769.336 125.102 769.497 125.086 769.68 125.055C769.862 125.018 770.049 124.966 770.242 124.898C770.435 124.831 770.622 124.745 770.805 124.641C770.992 124.531 771.159 124.401 771.305 124.25C771.451 124.099 771.568 123.927 771.656 123.734C771.745 123.542 771.789 123.326 771.789 123.086V121.742ZM779.102 117.633H780.68L782.906 124.445H782.938L785.164 117.633H786.742L783.547 126.336C783.385 126.773 783.237 127.154 783.102 127.477C782.966 127.799 782.833 128.073 782.703 128.297C782.573 128.526 782.44 128.711 782.305 128.852C782.174 128.992 782.029 129.102 781.867 129.18C781.711 129.263 781.534 129.318 781.336 129.344C781.143 129.375 780.919 129.391 780.664 129.391C780.456 129.391 780.292 129.38 780.172 129.359C780.057 129.344 779.956 129.323 779.867 129.297V128C779.961 128.031 780.083 128.062 780.234 128.094C780.385 128.125 780.544 128.141 780.711 128.141C780.977 128.141 781.19 128.076 781.352 127.945C781.518 127.82 781.646 127.641 781.734 127.406L782.203 126.227L779.102 117.633ZM787.977 117.633H789.414V121.008H793.32V117.633H794.766V126H793.32V122.258H789.414V126H787.977V117.633ZM796.883 117.633H798.32V124.047H798.352L802.461 117.633H804.109V126H802.664V119.586H802.633L798.531 126H796.883V117.633ZM811.266 122.625C810.953 122.708 810.609 122.779 810.234 122.836C809.865 122.893 809.518 122.922 809.195 122.922C808.076 122.922 807.245 122.708 806.703 122.281C806.161 121.849 805.891 121.169 805.891 120.242V117.633H807.328V119.953C807.328 120.266 807.365 120.536 807.438 120.766C807.516 120.995 807.641 121.185 807.812 121.336C807.984 121.482 808.211 121.591 808.492 121.664C808.773 121.737 809.12 121.773 809.531 121.773C809.641 121.773 809.771 121.763 809.922 121.742C810.078 121.721 810.237 121.695 810.398 121.664C810.56 121.633 810.716 121.599 810.867 121.562C811.023 121.521 811.156 121.479 811.266 121.438V117.633H812.711V126H811.266V122.625ZM817.062 118.883H814.18V117.633H821.383V118.883H818.5V126H817.062V118.883ZM828.68 121.805C828.68 121.341 828.628 120.917 828.523 120.531C828.419 120.141 828.263 119.805 828.055 119.523C827.846 119.242 827.589 119.023 827.281 118.867C826.979 118.706 826.628 118.625 826.227 118.625C825.826 118.625 825.474 118.706 825.172 118.867C824.87 119.023 824.615 119.242 824.406 119.523C824.198 119.805 824.042 120.141 823.938 120.531C823.833 120.917 823.781 121.341 823.781 121.805C823.781 122.273 823.833 122.706 823.938 123.102C824.042 123.492 824.198 123.828 824.406 124.109C824.615 124.391 824.87 124.612 825.172 124.773C825.474 124.93 825.826 125.008 826.227 125.008C826.628 125.008 826.979 124.93 827.281 124.773C827.589 124.612 827.846 124.391 828.055 124.109C828.263 123.828 828.419 123.492 828.523 123.102C828.628 122.706 828.68 122.273 828.68 121.805ZM830.117 121.805C830.117 122.492 830.029 123.112 829.852 123.664C829.674 124.211 829.419 124.677 829.086 125.062C828.753 125.448 828.344 125.745 827.859 125.953C827.38 126.156 826.836 126.258 826.227 126.258C825.617 126.258 825.073 126.156 824.594 125.953C824.115 125.745 823.708 125.448 823.375 125.062C823.042 124.677 822.786 124.211 822.609 123.664C822.432 123.112 822.344 122.492 822.344 121.805C822.344 121.128 822.432 120.516 822.609 119.969C822.786 119.422 823.042 118.956 823.375 118.57C823.708 118.185 824.115 117.891 824.594 117.688C825.073 117.479 825.617 117.375 826.227 117.375C826.836 117.375 827.38 117.479 827.859 117.688C828.344 117.891 828.753 118.185 829.086 118.57C829.419 118.956 829.674 119.422 829.852 119.969C830.029 120.516 830.117 121.128 830.117 121.805ZM837.664 121.055H838.391L841.133 117.633H842.867L839.578 121.602L842.992 126H841.219L838.391 122.195H837.664V126H836.227V122.195H835.492L832.641 126H830.867L834.312 121.602L831.039 117.633H832.781L835.492 121.055H836.227V117.633H837.664V121.055ZM851.352 123.328C851.294 123.693 851.169 124.049 850.977 124.398C850.784 124.747 850.531 125.06 850.219 125.336C849.906 125.612 849.536 125.833 849.109 126C848.688 126.172 848.219 126.258 847.703 126.258C847.141 126.258 846.62 126.167 846.141 125.984C845.667 125.797 845.255 125.518 844.906 125.148C844.562 124.773 844.292 124.305 844.094 123.742C843.896 123.18 843.797 122.518 843.797 121.758C843.797 121.247 843.852 120.786 843.961 120.375C844.076 119.958 844.227 119.589 844.414 119.266C844.607 118.938 844.828 118.656 845.078 118.422C845.328 118.182 845.591 117.987 845.867 117.836C846.148 117.68 846.435 117.565 846.727 117.492C847.018 117.414 847.299 117.375 847.57 117.375C848.143 117.375 848.667 117.461 849.141 117.633C849.615 117.805 850.021 118.068 850.359 118.422C850.703 118.771 850.969 119.211 851.156 119.742C851.349 120.268 851.445 120.888 851.445 121.602V122.32H845.328C845.333 122.727 845.391 123.096 845.5 123.43C845.609 123.758 845.766 124.039 845.969 124.273C846.172 124.508 846.417 124.69 846.703 124.82C846.995 124.945 847.323 125.008 847.688 125.008C848.057 125.008 848.37 124.956 848.625 124.852C848.88 124.747 849.094 124.615 849.266 124.453C849.438 124.292 849.576 124.112 849.68 123.914C849.789 123.716 849.88 123.521 849.953 123.328H851.352ZM850 121.172C849.99 120.766 849.927 120.404 849.812 120.086C849.703 119.768 849.547 119.503 849.344 119.289C849.146 119.07 848.906 118.906 848.625 118.797C848.344 118.682 848.031 118.625 847.688 118.625C847.359 118.625 847.057 118.69 846.781 118.82C846.505 118.945 846.263 119.122 846.055 119.352C845.846 119.576 845.68 119.844 845.555 120.156C845.43 120.464 845.354 120.802 845.328 121.172H850ZM853.133 117.633H854.57V121.008H858.477V117.633H859.922V126H858.477V122.258H854.57V126H853.133V117.633ZM862.039 117.633H863.477V124.047H863.508L867.617 117.633H869.266V126H867.82V119.586H867.789L863.688 126H862.039V117.633ZM878.508 123.328C878.451 123.693 878.326 124.049 878.133 124.398C877.94 124.747 877.688 125.06 877.375 125.336C877.062 125.612 876.693 125.833 876.266 126C875.844 126.172 875.375 126.258 874.859 126.258C874.297 126.258 873.776 126.167 873.297 125.984C872.823 125.797 872.411 125.518 872.062 125.148C871.719 124.773 871.448 124.305 871.25 123.742C871.052 123.18 870.953 122.518 870.953 121.758C870.953 121.247 871.008 120.786 871.117 120.375C871.232 119.958 871.383 119.589 871.57 119.266C871.763 118.938 871.984 118.656 872.234 118.422C872.484 118.182 872.747 117.987 873.023 117.836C873.305 117.68 873.591 117.565 873.883 117.492C874.174 117.414 874.456 117.375 874.727 117.375C875.299 117.375 875.823 117.461 876.297 117.633C876.771 117.805 877.177 118.068 877.516 118.422C877.859 118.771 878.125 119.211 878.312 119.742C878.505 120.268 878.602 120.888 878.602 121.602V122.32H872.484C872.49 122.727 872.547 123.096 872.656 123.43C872.766 123.758 872.922 124.039 873.125 124.273C873.328 124.508 873.573 124.69 873.859 124.82C874.151 124.945 874.479 125.008 874.844 125.008C875.214 125.008 875.526 124.956 875.781 124.852C876.036 124.747 876.25 124.615 876.422 124.453C876.594 124.292 876.732 124.112 876.836 123.914C876.945 123.716 877.036 123.521 877.109 123.328H878.508ZM877.156 121.172C877.146 120.766 877.083 120.404 876.969 120.086C876.859 119.768 876.703 119.503 876.5 119.289C876.302 119.07 876.062 118.906 875.781 118.797C875.5 118.682 875.188 118.625 874.844 118.625C874.516 118.625 874.214 118.69 873.938 118.82C873.661 118.945 873.419 119.122 873.211 119.352C873.003 119.576 872.836 119.844 872.711 120.156C872.586 120.464 872.51 120.802 872.484 121.172H877.156Z" fill="white"/>
<path d="M10 1H910V-1H10V1ZM919 10V190H921V10H919ZM910 199H10V201H910V199ZM1 190V10H-1V190H1ZM10 199C5.02944 199 1 194.971 1 190H-1C-1 196.075 3.92487 201 10 201V199ZM919 190C919 194.971 914.971 199 910 199V201C916.075 201 921 196.075 921 190H919ZM910 1C914.971 1 919 5.02944 919 10H921C921 3.92487 916.075 -1 910 -1V1ZM10 -1C3.92487 -1 -1 3.92487 -1 10H1C1 5.02944 5.02944 1 10 1V-1Z" fill="black"/>  -->
<defs>
<linearGradient id="paint0_linear" x1="0" y1="100" x2="920" y2="100" gradientUnits="userSpaceOnUse">
<stop stop-color="#CFF37D"/>
<stop offset="1" stop-color="#7DE88C"/>
</linearGradient>
</defs>
</svg>
